<svg width="16" height="16" viewBox="0 0 16 16" fill="currentColor" xmlns="http://www.w3.org/2000/svg">
<path d="M11.8844 4.27148H10.0809L9.3538 6.60241H11.8844C12.7262 6.60241 13.411 7.28731 13.411 8.12903C13.411 8.97075 12.7261 9.65566 11.8844 9.65566H8.40128L7.67406 11.9866H11.8844C14.0115 11.9866 15.7419 10.2561 15.7419 8.12903C15.7419 6.00198 14.0115 4.27148 11.8844 4.27148ZM4.11561 6.60241H7.5987L8.32593 4.27148H4.11561C1.98847 4.27148 0.258057 6.00198 0.258057 8.12903C0.258057 10.2561 1.98847 11.9866 4.11561 11.9866H5.91905L6.64619 9.65566H4.11561C3.2738 9.65566 2.58898 8.97075 2.58898 8.12903C2.58898 7.28731 3.27388 6.60241 4.11561 6.60241Z" fill="currentColor"/>
</svg>
