<svg xmlns="http://www.w3.org/2000/svg" height="16" width="16" viewBox="0 0 16 16"><g fill="currentColor"><path fill="currentColor" d="M13.9,10.6c-2,0.5-4.1-0.2-5.6-1.6c-2-2-2.4-5.1-0.9-7.5C7.9,0.8,7.2-0.2,6.3,0c-1.5,0.3-2.9,1.1-4,2.2 C0.8,3.7,0,5.8,0,7.9s0.8,4.2,2.4,5.7C3.9,15.2,5.9,16,8.1,16s4.2-0.8,5.7-2.4c0.4-0.4,0.8-0.9,1.2-1.5 C15.4,11.4,14.8,10.4,13.9,10.6z"></path> <path data-color="color-2" fill="currentColor" d="M15.7,3.7c0.4-0.4,0.4-1,0-1.4c-0.4-0.4-1-0.4-1.4,0c-0.3,0.3-1.3,0.3-1.6,0 c-0.4-0.4-1-0.4-1.4,0c-0.4,0.4-0.4,1,0,1.4c0.3,0.3,0.3,1.3,0,1.6c-0.4,0.4-0.4,1,0,1.4c0.4,0.4,1,0.4,1.4,0c0.3-0.3,1.3-0.3,1.6,0 c0.4,0.4,1,0.4,1.4,0c0.4-0.4,0.4-1,0-1.4C15.4,5,15.4,4,15.7,3.7z"></path></g></svg>
