<svg width="1220" height="1220" viewBox="0 0 1220 1220" fill="none" xmlns="http://www.w3.org/2000/svg">
<path d="M10 876.87H88.31C110.23 876.87 129.92 880.33 147.41 887.25C164.9 894.17 179.73 903.68 191.92 915.79C204.11 927.9 213.47 942.17 219.99 958.59C226.51 975.03 229.78 992.87 229.78 1012.14C229.78 1031.41 226.27 1049.33 219.25 1065.88C212.23 1082.44 202.5 1096.71 190.07 1108.69C177.63 1120.68 162.85 1130.13 145.74 1137.04C128.62 1143.96 109.97 1147.42 89.78 1147.42H10V876.88V876.87ZM50.26 913.93V1109.98H85.72C101.24 1109.98 115.33 1107.51 128.02 1102.57C140.7 1097.63 151.6 1090.78 160.72 1082C169.83 1073.23 176.84 1062.86 181.77 1050.87C186.69 1038.89 189.16 1025.98 189.16 1012.14C189.16 998.3 186.88 984.96 182.32 972.85C177.76 960.75 171.05 950.37 162.19 941.72C153.32 933.07 142.36 926.28 129.31 921.34C116.25 916.4 101.24 913.93 84.24 913.93H50.25H50.26Z" fill="#1E1E1E"/>
<path d="M357.719 1151.49C341.709 1151.49 327.239 1148.83 314.309 1143.52C301.379 1138.21 290.239 1130.92 280.879 1121.65C271.519 1112.38 264.309 1101.45 259.269 1088.85C254.219 1076.25 251.689 1062.67 251.689 1048.08C251.689 1033.49 254.329 1019.48 259.629 1006.76C264.929 994.04 272.249 982.98 281.609 973.59C290.959 964.2 301.919 956.79 314.479 951.36C327.039 945.93 340.709 943.21 355.479 943.21C370.249 943.21 383.849 945.75 396.299 950.81C408.729 955.88 419.509 962.98 428.619 972.12C437.729 981.26 444.869 992.07 450.039 1004.55C455.209 1017.03 457.799 1030.68 457.799 1045.5V1062.18H290.099C293.049 1078.49 300.439 1091.52 312.259 1101.28C324.079 1111.04 339.229 1115.92 357.699 1115.92C371.729 1115.92 383.489 1112.96 392.979 1107.03C402.459 1101.1 410.159 1093.32 416.069 1083.68L448.939 1103.32C439.339 1117.9 427.149 1129.58 412.369 1138.34C397.589 1147.11 379.359 1151.5 357.699 1151.5L357.719 1151.49ZM355.499 978.42C339.489 978.42 325.819 983.05 314.499 992.32C303.169 1001.59 295.529 1013.51 291.599 1028.08H417.559C414.609 1012.27 407.649 1000.04 396.689 991.39C385.729 982.74 371.999 978.42 355.509 978.42H355.499Z" fill="#1E1E1E"/>
<path d="M597 1151.49C582.97 1151.49 569.85 1148.89 557.66 1143.71C545.47 1138.52 535.68 1130.87 528.29 1120.73V1210H489.5V947.29H528.29V976.94C535.92 966.56 545.83 958.35 558.02 952.3C570.21 946.25 583.2 943.22 596.99 943.22C610.78 943.22 622.91 945.69 634.85 950.63C646.79 955.57 657.39 962.62 666.62 971.75C675.85 980.89 683.18 991.83 688.6 1004.55C694.01 1017.28 696.73 1031.55 696.73 1047.35C696.73 1063.15 693.96 1077.13 688.42 1089.97C682.88 1102.82 675.49 1113.82 666.25 1122.95C657.02 1132.09 646.36 1139.13 634.3 1144.07C622.23 1149.01 609.8 1151.48 596.99 1151.48L597 1151.49ZM591.46 1114.8C600.57 1114.8 609.12 1113.07 617.13 1109.61C625.13 1106.15 632.09 1101.33 638 1095.16C643.91 1088.99 648.53 1081.76 651.85 1073.48C655.18 1065.2 656.84 1056.37 656.84 1046.98C656.84 1037.59 655.18 1028.76 651.85 1020.48C648.53 1012.2 643.91 1005.04 638 998.98C632.09 992.93 625.13 988.17 617.13 984.71C609.12 981.25 600.57 979.52 591.46 979.52C582.35 979.52 573.41 981.31 565.41 984.89C557.41 988.48 550.45 993.29 544.54 999.34C538.63 1005.4 534.01 1012.56 530.69 1020.84C527.36 1029.12 525.7 1037.83 525.7 1046.97C525.7 1056.11 527.36 1065.19 530.69 1073.47C534.01 1081.75 538.63 1088.91 544.54 1094.97C550.45 1101.03 557.4 1105.84 565.41 1109.42C573.41 1113 582.09 1114.79 591.46 1114.79V1114.8Z" fill="#1E1E1E"/>
<path d="M728.391 876.67H768.651V1147.42H728.391V876.67Z" fill="#1E1E1E"/>
<path d="M903.771 1151.49C889.241 1151.49 875.701 1148.77 863.141 1143.34C850.581 1137.91 839.621 1130.5 830.261 1121.1C820.901 1111.71 813.511 1100.72 808.091 1088.12C802.671 1075.52 799.971 1061.93 799.971 1047.35C799.971 1032.77 802.681 1019.5 808.091 1006.77C813.511 994.05 820.891 982.99 830.261 973.6C839.621 964.21 850.581 956.8 863.141 951.37C875.701 945.94 889.241 943.22 903.771 943.22C918.301 943.22 931.531 945.94 944.221 951.37C956.901 956.81 967.921 964.22 977.281 973.6C986.641 982.99 994.021 994.05 999.451 1006.77C1004.86 1019.5 1007.57 1033.02 1007.57 1047.35C1007.57 1061.68 1004.86 1075.52 999.451 1088.12C994.031 1100.72 986.641 1111.72 977.281 1121.1C967.921 1130.49 956.901 1137.91 944.221 1143.34C931.531 1148.77 918.051 1151.49 903.771 1151.49ZM903.771 1114.06C912.881 1114.06 921.311 1112.33 929.071 1108.87C936.831 1105.41 943.601 1100.66 949.391 1094.6C955.171 1088.55 959.731 1081.51 963.061 1073.47C966.381 1065.44 968.051 1056.73 968.051 1047.34C968.051 1037.95 966.391 1029.55 963.061 1021.4C959.731 1013.25 955.171 1006.15 949.391 1000.09C943.601 994.04 936.761 989.29 928.881 985.82C921.001 982.36 912.631 980.63 903.761 980.63C894.891 980.63 886.221 982.36 878.461 985.82C870.701 989.28 863.921 994.04 858.141 1000.09C852.351 1006.15 847.861 1013.25 844.661 1021.4C841.451 1029.55 839.861 1038.2 839.861 1047.34C839.861 1056.48 841.461 1065.44 844.661 1073.47C847.861 1081.5 852.351 1088.54 858.141 1094.6C863.921 1100.66 870.701 1105.41 878.461 1108.87C886.221 1112.33 894.651 1114.06 903.761 1114.06H903.771Z" fill="#1E1E1E"/>
<path d="M1049.31 1204.07C1039.95 1204.07 1030.78 1202.65 1021.79 1199.81C1012.8 1196.97 1005.11 1193.08 998.699 1188.14L1022.34 1154.41C1025.79 1157.87 1029.67 1160.65 1033.98 1162.75C1038.29 1164.85 1043.27 1165.9 1048.94 1165.9C1054.11 1165.9 1058.73 1165.28 1062.79 1164.05C1066.86 1162.81 1070.61 1160.77 1074.05 1157.94C1077.5 1155.1 1086.44 1146.5 1089.57 1137.79L1007.56 947.3H1050.41L1110.25 1090.73L1167.5 947.3H1209.98L1128.34 1139.97C1123.41 1151.83 1118.3 1161.84 1113.01 1169.99C1107.71 1178.14 1101.92 1184.75 1095.64 1189.82C1089.36 1194.88 1082.47 1198.53 1074.96 1200.75C1067.45 1202.97 1058.89 1204.09 1049.29 1204.09L1049.31 1204.07Z" fill="#1E1E1E"/>
<path d="M987 382.23C987 176.98 820.02 10 614.77 10H381.89L233 219.8H614.77C778.03 219.8 910.86 352.63 910.86 515.9C910.86 557.85 902.24 598.84 885.7 636.44C950.52 567.52 987 476.94 987 382.24V382.23ZM614.77 277.33H381.89L233 487.13H614.77C704.33 487.13 777.2 559.99 777.2 649.56C777.2 666.14 774.78 682.27 769.97 697.74C822.57 652.91 853.33 586.59 853.33 515.89C853.33 384.34 746.31 277.32 614.77 277.32V277.33ZM614.77 544.66H381.89L233 754.46H614.77C672.61 754.46 719.67 707.4 719.67 649.56C719.67 591.72 672.61 544.66 614.77 544.66Z" fill="url(#paint0_linear_385_93)"/>
<defs>
<linearGradient id="paint0_linear_385_93" x1="230.22" y1="382.23" x2="967.06" y2="382.23" gradientUnits="userSpaceOnUse">
<stop stop-color="#6320C8"/>
<stop offset="0.28" stop-color="#6065CB"/>
<stop offset="0.52" stop-color="#5D9CCE"/>
<stop offset="0.73" stop-color="#5BC4D0"/>
<stop offset="0.9" stop-color="#5ADDD1"/>
<stop offset="1" stop-color="#5AE6D2"/>
</linearGradient>
</defs>
</svg>
