<svg width="1820" height="500" viewBox="0 0 1820 500" fill="none" xmlns="http://www.w3.org/2000/svg">
<path d="M615.02 128.23H693.01C714.83 128.23 734.45 131.67 751.86 138.53C769.27 145.4 784.05 154.84 796.18 166.85C808.32 178.87 817.64 193.03 824.14 209.34C830.64 225.65 833.89 243.37 833.89 262.49C833.89 281.61 830.39 299.4 823.4 315.83C816.41 332.26 806.72 346.43 794.34 358.32C781.95 370.22 767.24 379.6 750.2 386.46C733.15 393.33 714.58 396.76 694.47 396.76H615.01V128.23H615.02ZM655.12 165.01V359.6H690.43C705.88 359.6 719.92 357.15 732.55 352.24C745.18 347.34 756.03 340.53 765.11 331.83C774.18 323.13 781.17 312.83 786.07 300.93C790.97 289.04 793.43 276.23 793.43 262.49C793.43 248.75 791.16 235.52 786.62 223.5C782.08 211.49 775.4 201.19 766.58 192.6C757.75 184.02 746.84 177.28 733.84 172.37C720.84 167.47 705.88 165.01 688.96 165.01H655.12Z" fill="white"/>
<path d="M961.279 400.8C945.329 400.8 930.929 398.16 918.049 392.89C905.179 387.62 894.079 380.38 884.759 371.19C875.439 361.99 868.259 351.14 863.239 338.64C858.209 326.13 855.699 312.65 855.699 298.18C855.699 283.71 858.329 269.8 863.609 257.16C868.879 244.53 876.179 233.56 885.499 224.24C894.809 214.92 905.729 207.57 918.239 202.17C930.749 196.78 944.359 194.08 959.069 194.08C973.779 194.08 987.329 196.6 999.719 201.62C1012.1 206.65 1022.83 213.7 1031.91 222.77C1040.98 231.85 1048.09 242.58 1053.24 254.96C1058.39 267.35 1060.97 280.89 1060.97 295.61V312.16H893.969C896.909 328.34 904.259 341.28 916.039 350.97C927.809 360.66 942.889 365.5 961.289 365.5C975.269 365.5 986.979 362.56 996.419 356.67C1005.86 350.79 1013.53 343.06 1019.41 333.5L1052.15 353C1042.59 367.47 1030.45 379.06 1015.74 387.76C1001.02 396.47 982.869 400.82 961.299 400.82L961.279 400.8ZM959.079 229.02C943.129 229.02 929.519 233.62 918.249 242.81C906.969 252.01 899.359 263.84 895.449 278.31H1020.88C1017.94 262.62 1011.01 250.48 1000.1 241.89C989.189 233.31 975.509 229.02 959.089 229.02H959.079Z" fill="white"/>
<path d="M1199.57 400.8C1185.59 400.8 1172.54 398.22 1160.4 393.07C1148.26 387.92 1138.51 380.32 1131.15 370.26V458.86H1092.52V198.12H1131.15V227.55C1138.75 217.25 1148.62 209.1 1160.76 203.09C1172.9 197.08 1185.83 194.08 1199.57 194.08C1213.31 194.08 1225.38 196.53 1237.27 201.44C1249.16 206.35 1259.71 213.34 1268.91 222.41C1278.11 231.49 1285.4 242.34 1290.8 254.96C1296.19 267.59 1298.89 281.76 1298.89 297.45C1298.89 313.14 1296.13 327.01 1290.62 339.75C1285.1 352.5 1277.74 363.42 1268.55 372.49C1259.35 381.57 1248.74 388.55 1236.73 393.46C1224.71 398.36 1212.33 400.82 1199.58 400.82L1199.57 400.8ZM1194.05 364.39C1203.12 364.39 1211.64 362.68 1219.61 359.24C1227.58 355.81 1234.51 351.03 1240.39 344.89C1246.28 338.76 1250.88 331.59 1254.18 323.37C1257.49 315.16 1259.15 306.39 1259.15 297.07C1259.15 287.75 1257.49 278.99 1254.18 270.77C1250.87 262.56 1246.27 255.45 1240.39 249.43C1234.51 243.42 1227.58 238.7 1219.61 235.27C1211.64 231.84 1203.12 230.12 1194.05 230.12C1184.98 230.12 1176.08 231.9 1168.11 235.45C1160.14 239.01 1153.21 243.79 1147.33 249.8C1141.44 255.81 1136.84 262.92 1133.54 271.14C1130.23 279.36 1128.57 288 1128.57 297.07C1128.57 306.14 1130.23 315.16 1133.54 323.37C1136.85 331.59 1141.45 338.7 1147.33 344.71C1153.21 350.72 1160.14 355.5 1168.11 359.06C1176.08 362.62 1184.72 364.39 1194.05 364.39Z" fill="white"/>
<path d="M1330.41 128.02H1370.5V396.75H1330.41V128.02Z" fill="white"/>
<path d="M1505.06 400.8C1490.59 400.8 1477.1 398.1 1464.6 392.71C1452.09 387.32 1441.18 379.96 1431.86 370.64C1422.54 361.32 1415.18 350.41 1409.79 337.9C1404.4 325.39 1401.7 311.91 1401.7 297.44C1401.7 282.97 1404.4 269.79 1409.79 257.16C1415.18 244.53 1422.54 233.56 1431.86 224.24C1441.18 214.92 1452.09 207.57 1464.6 202.17C1477.11 196.78 1490.59 194.08 1505.06 194.08C1519.53 194.08 1532.71 196.78 1545.34 202.17C1557.96 207.57 1568.94 214.92 1578.26 224.24C1587.58 233.56 1594.93 244.54 1600.33 257.16C1605.72 269.79 1608.42 283.22 1608.42 297.44C1608.42 311.66 1605.72 325.4 1600.33 337.9C1594.93 350.41 1587.58 361.32 1578.26 370.64C1568.94 379.96 1557.96 387.32 1545.34 392.71C1532.71 398.1 1519.28 400.8 1505.06 400.8ZM1505.06 363.65C1514.13 363.65 1522.53 361.94 1530.26 358.5C1537.99 355.07 1544.73 350.35 1550.49 344.34C1556.25 338.33 1560.78 331.34 1564.1 323.37C1567.41 315.4 1569.07 306.76 1569.07 297.44C1569.07 288.12 1567.41 279.79 1564.1 271.69C1560.79 263.6 1556.25 256.55 1550.49 250.54C1544.73 244.53 1537.92 239.82 1530.07 236.38C1522.22 232.95 1513.89 231.23 1505.06 231.23C1496.23 231.23 1487.59 232.95 1479.86 236.38C1472.13 239.82 1465.39 244.54 1459.63 250.54C1453.87 256.55 1449.39 263.6 1446.21 271.69C1443.02 279.78 1441.43 288.37 1441.43 297.44C1441.43 306.51 1443.02 315.41 1446.21 323.37C1449.39 331.34 1453.87 338.33 1459.63 344.34C1465.39 350.35 1472.14 355.07 1479.86 358.5C1487.59 361.94 1495.98 363.65 1505.06 363.65Z" fill="white"/>
<path d="M1649.98 452.99C1640.66 452.99 1631.52 451.58 1622.57 448.76C1613.62 445.94 1605.96 442.08 1599.58 437.17L1623.12 403.69C1626.55 407.12 1630.41 409.88 1634.71 411.97C1639 414.05 1643.96 415.1 1649.61 415.1C1654.76 415.1 1659.36 414.49 1663.4 413.26C1667.45 412.03 1671.18 410.01 1674.62 407.19C1678.05 404.37 1686.96 395.83 1690.08 387.19L1608.42 198.12H1651.09L1710.68 340.48L1767.69 198.12H1809.99L1728.7 389.35C1723.79 401.12 1718.7 411.05 1713.44 419.15C1708.16 427.24 1702.4 433.8 1696.15 438.83C1689.9 443.85 1683.03 447.47 1675.55 449.68C1668.07 451.89 1659.55 452.99 1649.99 452.99H1649.98Z" fill="white"/>
<path d="M492.12 250C492.12 118.77 385.35 12 254.12 12H105.22L10.0195 146.14H254.12C358.51 146.14 443.44 231.07 443.44 335.46C443.44 362.28 437.93 388.49 427.35 412.53C468.79 368.46 492.12 310.55 492.12 250ZM254.12 182.93H105.22L10.0195 317.07H254.12C311.39 317.07 357.97 363.66 357.97 420.92C357.97 431.52 356.42 441.83 353.35 451.73C386.98 423.07 406.65 380.66 406.65 335.46C406.65 251.35 338.22 182.92 254.12 182.92V182.93ZM254.12 353.86H105.22L10.0195 488H254.12C291.1 488 321.19 457.91 321.19 420.93C321.19 383.95 291.1 353.86 254.12 353.86Z" fill="url(#paint0_linear_385_95)"/>
<defs>
<linearGradient id="paint0_linear_385_95" x1="8.23953" y1="250" x2="479.37" y2="250" gradientUnits="userSpaceOnUse">
<stop stop-color="#6320C8"/>
<stop offset="0.28" stop-color="#6065CB"/>
<stop offset="0.52" stop-color="#5D9CCE"/>
<stop offset="0.73" stop-color="#5BC4D0"/>
<stop offset="0.9" stop-color="#5ADDD1"/>
<stop offset="1" stop-color="#5AE6D2"/>
</linearGradient>
</defs>
</svg>
