<svg width="1820" height="1800" viewBox="0 0 1820 1800" fill="none" xmlns="http://www.w3.org/2000/svg">
<path d="M1810 900C1810 410.01 1411.36 11.3899 921.39 11.3899H365.44L10 512.23H921.39C1311.14 512.23 1628.24 829.33 1628.24 1219.1C1628.24 1319.24 1607.65 1417.09 1568.17 1506.85C1722.91 1342.32 1810.01 1126.08 1810.01 900H1810ZM921.39 649.57H365.44L10 1150.43H921.39C1135.2 1150.43 1309.15 1324.37 1309.15 1538.19C1309.15 1577.78 1303.36 1616.27 1291.89 1653.22C1417.46 1546.2 1490.9 1387.89 1490.9 1219.1C1490.9 905.07 1235.42 649.57 921.39 649.57ZM921.39 1287.77H365.44L10 1788.61H921.39C1059.46 1788.61 1171.81 1676.27 1171.81 1538.18C1171.81 1400.09 1059.46 1287.77 921.39 1287.77Z" fill="url(#paint0_linear_385_97)"/>
<defs>
<linearGradient id="paint0_linear_385_97" x1="3.36" y1="900" x2="1762.41" y2="900" gradientUnits="userSpaceOnUse">
<stop stop-color="#6320C8"/>
<stop offset="0.28" stop-color="#6065CB"/>
<stop offset="0.52" stop-color="#5D9CCE"/>
<stop offset="0.73" stop-color="#5BC4D0"/>
<stop offset="0.9" stop-color="#5ADDD1"/>
<stop offset="1" stop-color="#5AE6D2"/>
</linearGradient>
</defs>
</svg>
