<svg viewBox="0 0 1860 1610" xmlns="http://www.w3.org/2000/svg" xmlns:xlink="http://www.w3.org/1999/xlink">
  <linearGradient id="env-symbol-rgb-a" gradientUnits="userSpaceOnUse" x1="317.65" x2="1638.62" y1="503.42" y2="503.42">
    <stop offset="0" stop-color="#b47dff" />
    <stop offset=".24" stop-color="#9365e4" />
    <stop offset=".57" stop-color="#6c49c4" />
    <stop offset=".83" stop-color="#5338b1" />
    <stop offset="1" stop-color="#4b32aa" />
  </linearGradient>
  <linearGradient id="env-symbol-rgb-b" x1="675.73" x2="1249.43" xlink:href="#env-symbol-rgb-a" y1="805" y2="805" />
  <linearGradient id="env-symbol-rgb-c" x1="893.23" x2="2313.6" xlink:href="#env-symbol-rgb-a" y1="463.45"
    y2="463.45" />
  <path
    d="m911.59 405.4-194.01-331.94c-16.25-27.8-46.04-44.9-78.24-44.9h-563.96c-34.99 0-56.78 37.97-39.12 68.18l502.1 859.09c17.49 29.93 60.75 29.93 78.24 0l294.99-504.71c8.26-14.13 8.26-31.6 0-45.73z"
    fill="url(#env-symbol-rgb-a)" />
  <path
    d="m886.75 96.74 160.35 274.36c20.64 35.31 20.64 79.01 0 114.32l-365.11 624.7c-16.51 28.25-16.51 63.21 0 91.46l208.89 357.41c17.49 29.93 60.75 29.93 78.24 0l854.62-1462.25c17.66-30.21-4.13-68.18-39.12-68.18h-858.75c-34.99 0-56.78 37.97-39.12 68.18z"
    fill="url(#env-symbol-rgb-b)" />
  <path
    d="m886.75 96.74 468.5 801.6 468.49-801.6c17.66-30.21-4.13-68.18-39.12-68.18h-858.75c-34.99 0-56.78 37.97-39.12 68.18z"
    fill="url(#env-symbol-rgb-c)" />
</svg>
