<svg viewBox="0 0 1860 640" xmlns="http://www.w3.org/2000/svg" xmlns:xlink="http://www.w3.org/1999/xlink"><linearGradient id="env-logo-rgb-positive-a" gradientUnits="userSpaceOnUse" x1="1262.53" x2="1758.19" y1="206.84" y2="206.84"><stop offset="0" stop-color="#b47dff"/><stop offset=".24" stop-color="#9365e4"/><stop offset=".57" stop-color="#6c49c4"/><stop offset=".83" stop-color="#5338b1"/><stop offset="1" stop-color="#4b32aa"/></linearGradient><linearGradient id="env-logo-rgb-positive-b" x1="1396.89" x2="1612.16" xlink:href="#a" y1="320" y2="320"/><linearGradient id="env-logo-rgb-positive-c" x1="1478.5" x2="2011.46" xlink:href="#a" y1="191.84" y2="191.84"/><path d="m1485.39 170.06-72.8-124.55c-6.1-10.43-17.27-16.85-29.36-16.85h-211.61c-13.13 0-21.3 14.25-14.68 25.58l188.4 322.35c6.56 11.23 22.79 11.23 29.36 0l110.69-189.38c3.1-5.3 3.1-11.86 0-17.16z" fill="url(#a)"/><path d="m1476.07 54.24 60.17 102.95c7.74 13.25 7.74 29.65 0 42.9l-137 234.4c-6.2 10.6-6.2 23.72 0 34.32l78.38 134.11c6.56 11.23 22.79 11.23 29.36 0l320.67-548.68c6.62-11.33-1.55-25.58-14.68-25.58h-322.22c-13.13 0-21.3 14.25-14.68 25.58z" fill="url(#b)"/><path d="m1476.07 54.24 175.79 300.78 175.79-300.78c6.62-11.33-1.55-25.58-14.68-25.58h-322.22c-13.13 0-21.3 14.25-14.68 25.58z" fill="url(#c)"/><g fill="#323237"><path d="m181.13 254.05h202.12c26.21 0 28.83 2.62 28.83 28.83v70.76c0 26.21-2.62 28.83-28.83 28.83h-202.12v100.46h211.72c26.21 0 28.83 2.62 28.83 28.83v70.76c0 26.21-2.62 28.83-28.83 28.83h-334.02c-26.21 0-28.83-2.62-28.83-28.83v-525.03c0-26.21 2.62-28.83 28.83-28.83h334.02c26.21 0 28.83 2.62 28.83 28.83v70.76c0 26.21-2.62 28.83-28.83 28.83h-211.72z"/><path d="m956.32 57.49c0-26.21 2.62-28.83 28.83-28.83h93.47c26.21 0 28.83 2.62 28.83 28.83v525.02c0 26.21-2.62 28.83-28.83 28.83h-102.21q-20.09 0-32.33-15.72l-266.44-340.69v327.59c0 26.21-2.62 28.83-28.83 28.83h-93.47c-26.21 0-28.83-2.62-28.83-28.83v-525.03c0-26.21 2.62-28.83 28.83-28.83h102.21q20.09 0 32.32 15.73l266.44 340.69v-327.59z"/></g></svg>