<svg width="251" height="218" viewBox="0 0 251 218" fill="none" xmlns="http://www.w3.org/2000/svg">
<g clip-path="url(#clip0_3_108)">
<path d="M205.47 64.79C201 71.46 118 216.37 118 216.37L170.8 217.37C182.42 217.37 190.52 212.37 195.21 204.24L250.05 109.24C250.05 109.24 228.94 72 224.3 64.79C219.66 57.58 210.16 57.77 205.47 64.79Z" fill="url(#paint0_linear_3_108)"/>
<path d="M170.75 217.4C182.37 217.4 190.47 212.4 195.16 204.27L196.62 201.74C193 207.74 187.08 214.74 178.96 202.46C173.04 193.46 124.96 108.99 124.96 108.99L62.41 217.4H170.75Z" fill="white"/>
<path d="M44.53 153.21C49 146.52 132.12 1.52 132.12 1.52L79.25 0.600006C67.63 0.600006 59.53 5.6 54.84 13.73L0 108.7C0 108.7 21.06 146.03 25.7 153.21C30.34 160.39 39.84 160.23 44.53 153.21Z" fill="url(#paint1_linear_3_108)"/>
<path d="M79.25 0.600006C67.63 0.600006 59.53 5.6 54.84 13.73L53.38 16.26C57 10.26 62.92 3.25999 71.04 15.54C76.96 24.54 125.04 109.01 125.04 109.01L187.63 0.610001L79.25 0.600006Z" fill="white"/>
</g>
<defs>
<linearGradient id="paint0_linear_3_108" x1="83.05" y1="138.43" x2="342.45" y2="138.43" gradientUnits="userSpaceOnUse">
<stop stop-color="white" stop-opacity="0"/>
<stop offset="0.09" stop-color="white" stop-opacity="0.2"/>
<stop offset="0.19" stop-color="white" stop-opacity="0.41"/>
<stop offset="0.3" stop-color="white" stop-opacity="0.59"/>
<stop offset="0.4" stop-color="white" stop-opacity="0.74"/>
<stop offset="0.5" stop-color="white" stop-opacity="0.85"/>
<stop offset="0.6" stop-color="white" stop-opacity="0.93"/>
<stop offset="0.7" stop-color="white" stop-opacity="0.98"/>
<stop offset="0.8" stop-color="white"/>
</linearGradient>
<linearGradient id="paint1_linear_3_108" x1="184.94" y1="4.1" x2="-101.2" y2="169.3" gradientUnits="userSpaceOnUse">
<stop stop-color="white" stop-opacity="0"/>
<stop offset="0.09" stop-color="white" stop-opacity="0.2"/>
<stop offset="0.19" stop-color="white" stop-opacity="0.41"/>
<stop offset="0.3" stop-color="white" stop-opacity="0.59"/>
<stop offset="0.4" stop-color="white" stop-opacity="0.74"/>
<stop offset="0.5" stop-color="white" stop-opacity="0.85"/>
<stop offset="0.6" stop-color="white" stop-opacity="0.93"/>
<stop offset="0.7" stop-color="white" stop-opacity="0.98"/>
<stop offset="0.8" stop-color="white"/>
</linearGradient>
<clipPath id="clip0_3_108">
<rect width="251" height="218" fill="white"/>
</clipPath>
</defs>
</svg>
