<svg width="206" height="276" viewBox="0 0 206 276" fill="none" xmlns="http://www.w3.org/2000/svg">
<g clip-path="url(#clip0_3_62)">
<path d="M0.5 216.87H6.58V235H28.58V216.87H34.72V260.36H28.58V240.46H6.58V260.36H0.5V216.87Z" fill="white"/>
<path d="M55.53 254.09H55.65L63.65 231.24H69.79L55.66 267.24C55.2122 268.376 54.6772 269.476 54.06 270.53C53.5284 271.451 52.8532 272.282 52.06 272.99C51.2574 273.681 50.331 274.214 49.33 274.56C48.1299 274.952 46.8722 275.138 45.61 275.11C44.9967 275.11 44.3733 275.08 43.74 275.02C43.0891 274.955 42.444 274.841 41.81 274.68L42.36 269.58C43.2906 269.898 44.2665 270.064 45.25 270.07C45.8713 270.12 46.4959 270.033 47.0799 269.815C47.664 269.598 48.1931 269.254 48.63 268.81C49.4928 267.734 50.1689 266.52 50.63 265.22L52.47 260.37L40 231.24H46.45L55.53 254.09Z" fill="white"/>
<path d="M80.76 275.09H75V231.24H80.65V235.78H80.83C81.8432 234.154 83.2725 232.828 84.97 231.94C86.9194 230.903 89.1023 230.383 91.31 230.43C93.3399 230.405 95.3528 230.803 97.22 231.6C98.9605 232.355 100.524 233.465 101.81 234.86C103.121 236.274 104.141 237.932 104.81 239.74C105.501 241.664 105.84 243.696 105.81 245.74C105.835 247.783 105.496 249.815 104.81 251.74C104.158 253.552 103.159 255.22 101.87 256.65C100.585 258.058 99.0175 259.179 97.27 259.94C95.3572 260.763 93.292 261.172 91.21 261.14C89.1721 261.15 87.1595 260.688 85.33 259.79C83.5558 258.946 82.0501 257.628 80.98 255.98H80.8L80.76 275.09ZM99.92 245.73C99.9237 244.396 99.7178 243.07 99.31 241.8C98.9213 240.565 98.2964 239.417 97.47 238.42C96.6511 237.435 95.6274 236.64 94.47 236.09C93.1485 235.493 91.7099 235.199 90.26 235.23C88.8792 235.215 87.5125 235.509 86.26 236.09C85.0767 236.644 84.0212 237.437 83.16 238.42C82.2918 239.415 81.6139 240.56 81.16 241.8C80.2148 244.383 80.2148 247.217 81.16 249.8C81.6091 251.033 82.2878 252.17 83.16 253.15C84.0279 254.118 85.0823 254.9 86.26 255.45C87.5124 256.032 88.8792 256.326 90.26 256.31C91.7132 256.342 93.1541 256.038 94.47 255.42C95.6248 254.853 96.647 254.049 97.47 253.06C98.2964 252.063 98.9213 250.915 99.31 249.68C99.72 248.404 99.9259 247.071 99.92 245.73Z" fill="white"/>
<path d="M118.09 235.66C118.895 234.115 120.132 232.836 121.65 231.98C123.352 230.948 125.31 230.415 127.3 230.44C128.971 230.412 130.627 230.753 132.15 231.44C133.449 232.034 134.602 232.905 135.53 233.99C136.45 235.088 137.131 236.365 137.53 237.74C137.971 239.237 138.19 240.79 138.18 242.35V260.41H132.4V244.22C132.404 243.084 132.31 241.95 132.12 240.83C131.964 239.833 131.625 238.874 131.12 238C130.636 237.173 129.947 236.484 129.12 236C128.108 235.466 126.973 235.211 125.83 235.26C124.751 235.236 123.68 235.46 122.701 235.914C121.722 236.369 120.859 237.041 120.18 237.88C118.623 239.87 117.838 242.356 117.97 244.88V260.33H112.2V213.92H118V235.66H118.09Z" fill="white"/>
<path d="M173.42 245.55V246.55C173.421 246.884 173.401 247.218 173.36 247.55H150.2C150.224 248.743 150.497 249.918 151 251C151.499 252.061 152.199 253.015 153.06 253.81C153.936 254.611 154.953 255.242 156.06 255.67C157.467 256.202 158.973 256.422 160.473 256.315C161.973 256.208 163.433 255.776 164.75 255.05C166.096 254.272 167.251 253.202 168.13 251.92L172.18 255.18C170.756 257.135 168.865 258.703 166.68 259.74C162.502 261.559 157.781 261.688 153.51 260.1C151.699 259.409 150.048 258.354 148.66 257C147.281 255.626 146.196 253.986 145.47 252.18C144.671 250.191 144.274 248.063 144.3 245.92C144.279 243.79 144.666 241.675 145.44 239.69C146.15 237.863 147.229 236.202 148.61 234.81C149.984 233.448 151.616 232.374 153.41 231.65C157.194 230.167 161.393 230.135 165.2 231.56C166.884 232.214 168.398 233.239 169.63 234.56C170.88 235.938 171.833 237.558 172.43 239.32C173.107 241.326 173.442 243.433 173.42 245.55ZM167.52 243.22C167.488 242.124 167.293 241.038 166.94 240C166.612 239.033 166.088 238.144 165.4 237.39C164.695 236.633 163.836 236.036 162.88 235.64C161.759 235.19 160.558 234.972 159.35 235C158.163 234.991 156.986 235.208 155.88 235.64C154.84 236.044 153.883 236.637 153.06 237.39C152.242 238.133 151.565 239.017 151.06 240C150.549 241.002 150.246 242.098 150.17 243.22H167.52Z" fill="white"/>
<path d="M184.74 231.24C184.82 231.98 184.88 232.81 184.92 233.73C184.96 234.65 184.987 235.407 185 236H185.18C185.563 235.199 186.069 234.464 186.68 233.82C187.327 233.135 188.06 232.537 188.86 232.04C189.701 231.518 190.609 231.114 191.56 230.84C192.558 230.551 193.591 230.407 194.63 230.41C196.301 230.382 197.957 230.723 199.48 231.41C200.779 232.004 201.932 232.874 202.86 233.96C203.78 235.057 204.461 236.335 204.86 237.71C205.301 239.207 205.52 240.76 205.51 242.32V260.38H199.74V244.2C199.744 243.067 199.65 241.937 199.46 240.82C199.305 239.823 198.966 238.863 198.46 237.99C197.979 237.16 197.29 236.471 196.46 235.99C195.437 235.459 194.292 235.204 193.14 235.25C192.066 235.225 191 235.447 190.025 235.899C189.051 236.352 188.194 237.023 187.52 237.86C185.977 239.856 185.204 242.341 185.34 244.86V260.34H179.57V237.5C179.57 236.72 179.55 235.72 179.51 234.5C179.47 233.28 179.41 232.193 179.33 231.24H184.74Z" fill="white"/>
<path d="M167.7 52.52C164.12 57.88 97.33 174.39 97.33 174.39L139.78 175.22C149.12 175.22 155.64 171.22 159.41 164.67L203.5 88.31C203.5 88.31 186.57 58.31 182.84 52.52C179.11 46.73 171.47 46.88 167.7 52.52Z" fill="url(#paint0_linear_3_62)"/>
<path d="M139.78 175.22C149.12 175.22 155.64 171.22 159.41 164.67L160.58 162.67C157.67 167.52 152.91 173.15 146.38 163.25C141.62 156 103 88.06 103 88.06L52.68 175.22H139.78Z" fill="url(#paint1_linear_3_62)"/>
<path d="M38.3 123.61C41.89 118.23 108.72 1.60999 108.72 1.60999L66.22 0.869995C56.88 0.869995 50.36 4.86999 46.59 11.42L2.5 87.82C2.5 87.82 19.43 117.82 23.16 123.61C26.89 129.4 34.53 129.25 38.3 123.61Z" fill="url(#paint2_linear_3_62)"/>
<path d="M66.22 0.909996C56.88 0.909996 50.36 4.90999 46.59 11.46L45.42 13.46C48.33 8.60999 53.09 2.97999 59.62 12.88C64.38 20.11 103.01 88.03 103.01 88.03L153.33 0.869995L66.22 0.909996Z" fill="url(#paint3_linear_3_62)"/>
</g>
<defs>
<linearGradient id="paint0_linear_3_62" x1="54.91" y1="172.35" x2="284.81" y2="39.61" gradientUnits="userSpaceOnUse">
<stop stop-color="#FA0A64"/>
<stop offset="0.11" stop-color="#FA135F"/>
<stop offset="0.28" stop-color="#FB2B52"/>
<stop offset="0.49" stop-color="#FC533E"/>
<stop offset="0.75" stop-color="#FD8A21"/>
<stop offset="1" stop-color="#FFC800"/>
</linearGradient>
<linearGradient id="paint1_linear_3_62" x1="106.64" y1="174.59" x2="106.64" y2="1.00999" gradientUnits="userSpaceOnUse">
<stop stop-color="#FFC800"/>
<stop offset="0.11" stop-color="#FFBF05"/>
<stop offset="0.28" stop-color="#FEA712"/>
<stop offset="0.49" stop-color="#FD7F26"/>
<stop offset="0.75" stop-color="#FC4843"/>
<stop offset="1" stop-color="#FA0A64"/>
</linearGradient>
<linearGradient id="paint2_linear_3_62" x1="151.19" y1="3.71999" x2="-78.86" y2="136.54" gradientUnits="userSpaceOnUse">
<stop stop-color="#FA0A64"/>
<stop offset="0.11" stop-color="#FA135F"/>
<stop offset="0.28" stop-color="#FB2B52"/>
<stop offset="0.49" stop-color="#FC533E"/>
<stop offset="0.75" stop-color="#FD8A21"/>
<stop offset="1" stop-color="#FFC800"/>
</linearGradient>
<linearGradient id="paint3_linear_3_62" x1="99.37" y1="1.54" x2="99.37" y2="175.11" gradientUnits="userSpaceOnUse">
<stop stop-color="#FFC800"/>
<stop offset="0.11" stop-color="#FFBF05"/>
<stop offset="0.28" stop-color="#FEA712"/>
<stop offset="0.49" stop-color="#FD7F26"/>
<stop offset="0.75" stop-color="#FC4843"/>
<stop offset="1" stop-color="#FA0A64"/>
</linearGradient>
<clipPath id="clip0_3_62">
<rect width="206" height="276" fill="white"/>
</clipPath>
</defs>
</svg>
