<svg xmlns="http://www.w3.org/2000/svg" xmlns:xlink="http://www.w3.org/1999/xlink" viewBox="0 0 500 500">
  <defs>
    <style>
      .hyphen-symbol-black-a {
        fill: url(#hyphen-symbol-black-a);
      }

      .hyphen-symbol-black-b {
        fill: #231f20;
      }

      .hyphen-symbol-black-c {
        fill: url(#hyphen-symbol-black-b);
      }
    </style>
    <linearGradient id="hyphen-symbol-black-a" x1="208.05" y1="279.43" x2="467.45" y2="279.43"
      gradientUnits="userSpaceOnUse">
      <stop offset="0" stop-color="#231f20" stop-opacity="0" />
      <stop offset="0.26" stop-color="#231f20" stop-opacity="0.53" />
      <stop offset="0.53" stop-color="#231f20" stop-opacity="0.88" />
      <stop offset="0.8" stop-color="#231f20" />
    </linearGradient>
    <linearGradient id="hyphen-symbol-black-b" x1="-4109.69" y1="-5714.75" x2="-3823.55" y2="-5879.95"
      gradientTransform="translate(-3799.75 -5569.65) rotate(180)" xlink:href="#hyphen-symbol-black-a" />
  </defs>
  <title>Hyphen Symbol BLACK</title>
  <path class="hyphen-symbol-black-a"
    d="M330.47,205.79C326,212.46,243,357.37,243,357.37l52.8,1c11.62,0,19.72-5,24.41-13.13l54.84-95S353.94,213,349.3,205.79,335.16,198.77,330.47,205.79Z" />
  <path class="hyphen-symbol-black-b"
    d="M295.75,358.4c11.62,0,19.72-5,24.41-13.13l1.46-2.53c-3.62,6-9.54,13-17.66.72-5.92-9-54-93.47-54-93.47L187.41,358.4Z" />
  <path class="hyphen-symbol-black-c"
    d="M169.53,294.21c4.47-6.69,87.59-151.69,87.59-151.69l-52.87-.92c-11.62,0-19.72,5-24.41,13.13L125,249.7s21.06,37.33,25.7,44.51S164.84,301.23,169.53,294.21Z" />
  <path class="b"
    d="M204.25,141.6c-11.62,0-19.72,5-24.41,13.13l-1.46,2.53c3.62-6,9.54-13,17.66-.72,5.92,9,54,93.47,54,93.47l62.59-108.4Z" />
</svg>
