<svg xmlns="http://www.w3.org/2000/svg" xmlns:xlink="http://www.w3.org/1999/xlink" viewBox="0 0 500 500"><defs><style>.a{fill:url(#a);}.b{fill:url(#b);}.c{fill:url(#c);}.d{fill:url(#d);}</style><linearGradient id="a" x1="190.19" y1="354.83" x2="476.13" y2="189.74" gradientUnits="userSpaceOnUse"><stop offset="0" stop-color="#fa0a64"/><stop offset="0.11" stop-color="#fa135f"/><stop offset="0.28" stop-color="#fb2b52"/><stop offset="0.49" stop-color="#fc533e"/><stop offset="0.75" stop-color="#fd8a21"/><stop offset="1" stop-color="#ffc800"/></linearGradient><linearGradient id="b" x1="-8157.01" y1="-2422.32" x2="-8157.01" y2="-2206.43" gradientTransform="translate(-7902.49 -2064.7) rotate(180)" gradientUnits="userSpaceOnUse"><stop offset="0" stop-color="#ffc800"/><stop offset="0.11" stop-color="#ffbf05"/><stop offset="0.28" stop-color="#fea712"/><stop offset="0.49" stop-color="#fd7f26"/><stop offset="0.75" stop-color="#fc4843"/><stop offset="1" stop-color="#fa0a64"/></linearGradient><linearGradient id="c" x1="-6554.25" y1="-2124.13" x2="-6268.11" y2="-2289.33" gradientTransform="translate(-6244.31 -1979.03) rotate(180)" xlink:href="#a"/><linearGradient id="d" x1="-1412.7" y1="56.71" x2="-1412.7" y2="272.6" gradientTransform="translate(1658.18 85.67)" xlink:href="#b"/></defs><title>Hyphen Symbol RGB</title><path class="a" d="M330.47,205.79C326,212.46,243,357.37,243,357.37l52.8,1c11.62,0,19.72-5,24.41-13.13l54.84-95S353.94,213,349.3,205.79,335.16,198.77,330.47,205.79Z"/><path class="b" d="M295.75,358.4c11.62,0,19.72-5,24.41-13.13l1.46-2.53c-3.62,6-9.54,13-17.66.72-5.92-9-54-93.47-54-93.47L187.41,358.4Z"/><path class="c" d="M169.53,294.21c4.47-6.69,87.59-151.69,87.59-151.69l-52.87-.92c-11.62,0-19.72,5-24.41,13.13L125,249.7s21.06,37.33,25.7,44.51S164.84,301.23,169.53,294.21Z"/><path class="d" d="M204.25,141.6c-11.62,0-19.72,5-24.41,13.13l-1.46,2.53c3.62-6,9.54-13,17.66-.72,5.92,9,54,93.47,54,93.47l62.59-108.4Z"/></svg>