<svg width="360" height="105" viewBox="0 0 360 105" fill="none" xmlns="http://www.w3.org/2000/svg">
<g clip-path="url(#clip0_3_38)">
<path d="M139.18 28.35H145.71V47.86H169.31V28.35H175.9V75H169.3V53.66H145.7V75H139.17L139.18 28.35Z" fill="#231F20"/>
<path d="M198.23 68.2899H198.36L207 43.7699H213.59L198.43 82.3999C197.952 83.6188 197.38 84.7989 196.72 85.9299C196.139 86.9204 195.403 87.8117 194.54 88.5699C193.678 89.3098 192.684 89.8798 191.61 90.2499C190.32 90.6714 188.967 90.8709 187.61 90.8399C186.943 90.8399 186.277 90.8066 185.61 90.7399C184.909 90.6717 184.213 90.5514 183.53 90.3799L184.12 84.9099C185.118 85.2528 186.165 85.4318 187.22 85.4399C187.885 85.4922 188.554 85.3985 189.179 85.1653C189.805 84.9321 190.371 84.5651 190.84 84.0899C191.778 82.9349 192.515 81.6299 193.02 80.2299L195.02 75.0199L181.64 43.7799H188.56L198.23 68.2899Z" fill="#231F20"/>
<path d="M225.31 90.8299H219.11V43.7699H225.17V48.6499H225.37C226.457 46.9058 227.99 45.4834 229.81 44.5299C231.904 43.4157 234.249 42.8579 236.62 42.9099C238.801 42.8799 240.963 43.3057 242.97 44.1599C244.839 44.9672 246.518 46.1559 247.9 47.6499C249.297 49.1703 250.381 50.9508 251.09 52.8899C251.847 54.9485 252.226 57.1267 252.21 59.32C252.224 61.5228 251.845 63.7105 251.09 65.7799C250.389 67.7252 249.316 69.5151 247.93 71.0499C246.553 72.5595 244.873 73.7623 243 74.5799C240.945 75.4645 238.727 75.9042 236.49 75.8699C234.303 75.88 232.143 75.3838 230.18 74.42C228.275 73.5144 226.659 72.0987 225.51 70.3299H225.31V90.8299ZM245.88 59.32C245.882 57.8874 245.66 56.4634 245.22 55.1C244.793 53.7754 244.114 52.5461 243.22 51.4799C242.339 50.4297 241.24 49.5836 240 48.9999C238.581 48.3595 237.036 48.0451 235.48 48.0799C233.989 48.0587 232.513 48.3732 231.16 48.9999C229.889 49.5939 228.755 50.4452 227.83 51.4999C226.901 52.5656 226.176 53.7926 225.69 55.1199C224.679 57.8872 224.679 60.9227 225.69 63.6899C226.171 65.0108 226.897 66.2289 227.83 67.2799C228.762 68.3192 229.895 69.1594 231.16 69.7499C232.513 70.3774 233.989 70.6918 235.48 70.67C237.044 70.6911 238.591 70.3487 240 69.67C241.255 69.0641 242.366 68.1983 243.26 67.1299C244.155 66.0607 244.834 64.8279 245.26 63.4999C245.681 62.1504 245.89 60.7436 245.88 59.3299V59.32Z" fill="#231F20"/>
<path d="M265.38 48.5199C266.236 46.8424 267.564 45.452 269.2 44.5199C271.026 43.4144 273.125 42.8427 275.26 42.8699C277.049 42.8158 278.828 43.1572 280.47 43.8699C281.861 44.5097 283.096 45.4447 284.09 46.6099C285.072 47.7812 285.8 49.1432 286.23 50.6099C286.7 52.2141 286.933 53.8784 286.92 55.5499V74.9999H280.72V57.6999C280.724 56.4836 280.623 55.2692 280.42 54.0699C280.243 53.0117 279.874 51.9949 279.33 51.0699C278.807 50.1965 278.071 49.4704 277.19 48.9599C276.104 48.3883 274.886 48.1156 273.66 48.1699C272.502 48.1443 271.354 48.3843 270.304 48.8714C269.253 49.3585 268.328 50.0798 267.6 50.9799C265.933 53.1129 265.091 55.7761 265.23 58.4799V74.9999H259V25.1799H265.2V48.5099L265.38 48.5199Z" fill="#231F20"/>
<path d="M324.75 59.1299V60.1899C324.748 60.541 324.725 60.8917 324.68 61.2399H299.83C299.866 62.5217 300.17 63.7818 300.72 64.9399C301.257 66.0726 302.007 67.0911 302.93 67.9399C303.864 68.7991 304.949 69.4772 306.13 69.9399C307.64 70.5121 309.257 70.7495 310.868 70.6355C312.478 70.5216 314.045 70.059 315.46 69.2799C316.902 68.4435 318.139 67.2956 319.08 65.9199L323.43 69.4099C321.902 71.5066 319.874 73.1876 317.53 74.2999C313.043 76.251 307.975 76.3872 303.39 74.6799C301.444 73.9376 299.671 72.8043 298.18 71.3499C296.698 69.8766 295.531 68.1177 294.75 66.1799C293.895 64.0441 293.47 61.7604 293.5 59.4599C293.476 57.1725 293.89 54.9016 294.72 52.7699C295.481 50.8082 296.639 49.0244 298.12 47.5299C299.594 46.0685 301.345 44.916 303.27 44.1399C307.33 42.5485 311.835 42.5129 315.92 44.0399C317.73 44.7436 319.357 45.8479 320.68 47.2699C322.02 48.7494 323.041 50.4888 323.68 52.3799C324.416 54.553 324.778 56.8355 324.75 59.1299ZM318.42 56.6299C318.383 55.4517 318.171 54.2854 317.79 53.1699C317.439 52.1328 316.877 51.1795 316.14 50.3699C315.385 49.5572 314.464 48.9161 313.44 48.4899C312.236 48.0057 310.947 47.7709 309.65 47.7999C308.377 47.7911 307.115 48.0253 305.93 48.4899C304.823 48.9268 303.806 49.5641 302.93 50.3699C302.065 51.17 301.351 52.1182 300.82 53.1699C300.255 54.2434 299.915 55.4206 299.82 56.6299H318.42Z" fill="#231F20"/>
<path d="M336.9 43.7699C336.987 44.5632 337.053 45.4532 337.1 46.4399C337.147 47.4265 337.17 48.2499 337.17 48.9099H337.37C337.781 48.0504 338.324 47.2608 338.98 46.5699C339.674 45.835 340.461 45.193 341.32 44.6599C342.223 44.1022 343.199 43.6715 344.22 43.3799C345.292 43.07 346.404 42.9151 347.52 42.9199C349.309 42.8657 351.088 43.2072 352.73 43.9199C354.121 44.5594 355.357 45.4944 356.35 46.6599C357.332 47.8309 358.061 49.1929 358.49 50.6599C358.96 52.264 359.192 53.9284 359.18 55.5999V74.9999H353V57.6799C353.004 56.4669 352.903 55.2558 352.7 54.0599C352.524 53.0015 352.154 51.9846 351.61 51.0599C351.08 50.1785 350.328 49.4512 349.43 48.9499C348.332 48.382 347.105 48.1097 345.87 48.1599C344.722 48.1363 343.584 48.3765 342.544 48.8619C341.504 49.3474 340.589 50.0651 339.87 50.9599C338.222 53.0938 337.392 55.7471 337.53 58.4399V74.9999H331.33V50.4999C331.33 49.6665 331.307 48.5899 331.26 47.2699C331.213 45.9499 331.147 44.7865 331.06 43.7799L336.9 43.7699Z" fill="#231F20"/>
<path d="M99.45 30.78C97.31 33.98 57.45 103.54 57.45 103.54L82.79 104.04C88.37 104.04 92.26 101.64 94.51 97.74L120.83 52.15C120.83 52.15 110.72 34.23 108.5 30.79C108.033 30.0063 107.371 29.3572 106.579 28.9061C105.786 28.455 104.89 28.2173 103.978 28.2163C103.066 28.2153 102.169 28.451 101.375 28.9004C100.582 29.3497 99.9184 29.9974 99.45 30.78Z" fill="url(#paint0_linear_3_38)"/>
<path d="M82.78 104C88.36 104 92.25 101.6 94.5 97.7L95.2 96.49C93.46 99.39 90.62 102.74 86.72 96.83C83.88 92.51 60.82 51.97 60.82 51.97L30.82 103.97L82.78 104Z" fill="url(#paint1_linear_3_38)"/>
<path d="M22.19 73.22C24.33 70.01 64.19 0.410004 64.19 0.410004L38.86 0C33.28 0 29.39 2.4 27.14 6.3L0.820007 51.86C0.820007 51.86 10.93 69.78 13.15 73.22C13.6181 74.0008 14.2805 74.6471 15.0726 75.0958C15.8648 75.5445 16.7596 75.7803 17.67 75.7803C18.5804 75.7803 19.4753 75.5445 20.2674 75.0958C21.0595 74.6471 21.7219 74.0008 22.19 73.22Z" fill="url(#paint2_linear_3_38)"/>
<path d="M38.86 0C33.28 0 29.39 2.4 27.14 6.3L26.44 7.50999C28.18 4.60999 31.02 1.26 34.92 7.17C37.76 11.49 60.82 52.03 60.82 52.03L90.82 0.0299988L38.86 0Z" fill="url(#paint3_linear_3_38)"/>
</g>
<defs>
<linearGradient id="paint0_linear_3_38" x1="32.11" y1="102.32" x2="169.36" y2="23.07" gradientUnits="userSpaceOnUse">
<stop stop-color="#FA0A64"/>
<stop offset="0.11" stop-color="#FA135F"/>
<stop offset="0.28" stop-color="#FB2B52"/>
<stop offset="0.49" stop-color="#FC533E"/>
<stop offset="0.75" stop-color="#FD8A21"/>
<stop offset="1" stop-color="#FFC800"/>
</linearGradient>
<linearGradient id="paint1_linear_3_38" x1="62.99" y1="103.66" x2="62.99" y2="0.0299745" gradientUnits="userSpaceOnUse">
<stop stop-color="#FFC800"/>
<stop offset="0.11" stop-color="#FFBF05"/>
<stop offset="0.28" stop-color="#FEA712"/>
<stop offset="0.49" stop-color="#FD7F26"/>
<stop offset="0.75" stop-color="#FC4843"/>
<stop offset="1" stop-color="#FA0A64"/>
</linearGradient>
<linearGradient id="paint2_linear_3_38" x1="89.59" y1="1.65" x2="-47.75" y2="80.94" gradientUnits="userSpaceOnUse">
<stop stop-color="#FA0A64"/>
<stop offset="0.11" stop-color="#FA135F"/>
<stop offset="0.28" stop-color="#FB2B52"/>
<stop offset="0.49" stop-color="#FC533E"/>
<stop offset="0.75" stop-color="#FD8A21"/>
<stop offset="1" stop-color="#FFC800"/>
</linearGradient>
<linearGradient id="paint3_linear_3_38" x1="58.65" y1="0.34" x2="58.65" y2="103.97" gradientUnits="userSpaceOnUse">
<stop stop-color="#FFC800"/>
<stop offset="0.11" stop-color="#FFBF05"/>
<stop offset="0.28" stop-color="#FEA712"/>
<stop offset="0.49" stop-color="#FD7F26"/>
<stop offset="0.75" stop-color="#FC4843"/>
<stop offset="1" stop-color="#FA0A64"/>
</linearGradient>
<clipPath id="clip0_3_38">
<rect width="360" height="105" fill="white"/>
</clipPath>
</defs>
</svg>
