<svg viewBox="0 0 500 500" xmlns="http://www.w3.org/2000/svg" xmlns:xlink="http://www.w3.org/1999/xlink"><linearGradient id="hyphen-logo-horizontal-black-a" gradientUnits="userSpaceOnUse" x1="216.27" x2="424.83" y1="223.73" y2="223.73"><stop offset="0" stop-color="#231f20" stop-opacity="0"/><stop offset=".26" stop-color="#231f20" stop-opacity=".53"/><stop offset=".53" stop-color="#231f20" stop-opacity=".88"/><stop offset=".8" stop-color="#231f20"/></linearGradient><linearGradient id="hyphen-logo-horizontal-black-b" gradientTransform="matrix(-1 0 -0 -1 -2599.75 -5569.65)" x1="-2897.94" x2="-2667.89" xlink:href="#a" y1="-5685.37" y2="-5818.2"/><g fill="#231f20"><path d="m147.5 328.87h6.08v18.13h22v-18.13h6.14v43.49h-6.14v-19.9h-22v19.9h-6.08z"/><path d="m202.53 366.09h.12l8-22.85h6.14l-14.13 36a23.72 23.72 0 0 1 -1.6 3.29 10 10 0 0 1 -2 2.46 8.38 8.38 0 0 1 -2.73 1.57 11.18 11.18 0 0 1 -3.72.55q-.92 0-1.87-.09a13.21 13.21 0 0 1 -1.93-.34l.55-5.1a9.11 9.11 0 0 0 2.89.49 4.26 4.26 0 0 0 3.38-1.26 12.33 12.33 0 0 0 2-3.59l1.84-4.85-12.47-29.13h6.45z"/><path d="m227.76 387.09h-5.76v-43.85h5.65v4.54h.18a10.75 10.75 0 0 1 4.14-3.84 12.91 12.91 0 0 1 6.34-1.51 14.6 14.6 0 0 1 5.91 1.17 13.61 13.61 0 0 1 4.59 3.26 14.66 14.66 0 0 1 3 4.88 17 17 0 0 1 1 6 17.24 17.24 0 0 1 -1 6 14.83 14.83 0 0 1 -2.94 4.91 13.56 13.56 0 0 1 -4.6 3.29 14.77 14.77 0 0 1 -6.06 1.2 13.2 13.2 0 0 1 -5.88-1.35 10.63 10.63 0 0 1 -4.35-3.81h-.18zm19.16-29.36a12.74 12.74 0 0 0 -.61-3.93 10 10 0 0 0 -1.84-3.38 8.82 8.82 0 0 0 -3-2.33 9.71 9.71 0 0 0 -4.21-.86 9.26 9.26 0 0 0 -4 .86 9.45 9.45 0 0 0 -3.1 2.33 10.77 10.77 0 0 0 -2 3.38 11.64 11.64 0 0 0 0 8 10.39 10.39 0 0 0 2 3.35 9.65 9.65 0 0 0 3.1 2.3 9.25 9.25 0 0 0 4 .86 9.42 9.42 0 0 0 4.21-.89 9.15 9.15 0 0 0 3-2.36 10 10 0 0 0 1.84-3.38 12.73 12.73 0 0 0 .61-3.95z"/><path d="m265.09 347.66a9 9 0 0 1 3.56-3.68 10.64 10.64 0 0 1 5.65-1.54 11.33 11.33 0 0 1 4.85 1 9.83 9.83 0 0 1 3.38 2.55 10.32 10.32 0 0 1 2 3.75 15.94 15.94 0 0 1 .65 4.61v18.06h-5.78v-16.19a19.88 19.88 0 0 0 -.28-3.39 8.17 8.17 0 0 0 -1-2.83 5.59 5.59 0 0 0 -2-2 6.45 6.45 0 0 0 -3.29-.74 7.07 7.07 0 0 0 -5.65 2.62 10.47 10.47 0 0 0 -2.21 7v15.45h-5.77v-46.41h5.8v21.74z"/><path d="m320.42 357.55v1a8 8 0 0 1 -.06 1h-23.16a8.6 8.6 0 0 0 .8 3.45 9.09 9.09 0 0 0 2.06 2.81 9.54 9.54 0 0 0 3 1.86 10.39 10.39 0 0 0 8.69-.62 10.42 10.42 0 0 0 3.38-3.13l4.05 3.26a14.49 14.49 0 0 1 -5.5 4.56 17.62 17.62 0 0 1 -13.17.36 14.2 14.2 0 0 1 -4.85-3.1 14.38 14.38 0 0 1 -3.19-4.82 16.27 16.27 0 0 1 -1.17-6.26 16.7 16.7 0 0 1 1.14-6.23 14.27 14.27 0 0 1 3.17-4.88 14.54 14.54 0 0 1 4.8-3.16 16.48 16.48 0 0 1 11.79-.09 12 12 0 0 1 4.43 3 13.56 13.56 0 0 1 2.8 4.76 18.87 18.87 0 0 1 .99 6.23zm-5.9-2.33a11 11 0 0 0 -.58-3.22 7.4 7.4 0 0 0 -1.54-2.61 7.22 7.22 0 0 0 -2.52-1.75 8.92 8.92 0 0 0 -3.53-.64 9.35 9.35 0 0 0 -3.47.64 9 9 0 0 0 -2.82 1.75 9.21 9.21 0 0 0 -2 2.61 8.32 8.32 0 0 0 -.89 3.22z"/><path d="m331.74 343.24q.12 1.11.18 2.49t.08 2.27h.18a8.48 8.48 0 0 1 1.5-2.18 10.93 10.93 0 0 1 2.18-1.78 10.78 10.78 0 0 1 2.7-1.2 10.92 10.92 0 0 1 3.07-.43 11.33 11.33 0 0 1 4.85 1 9.82 9.82 0 0 1 3.38 2.55 10.3 10.3 0 0 1 2 3.75 15.94 15.94 0 0 1 .65 4.61v18.06h-5.77v-16.18a19.78 19.78 0 0 0 -.28-3.38 8.15 8.15 0 0 0 -1-2.83 5.5 5.5 0 0 0 -2-2 6.63 6.63 0 0 0 -3.32-.74 7 7 0 0 0 -5.62 2.61 10.52 10.52 0 0 0 -2.18 7v15.48h-5.77v-22.84q0-1.17-.06-3t-.18-3.26z"/></g><path d="m314.7 164.52c-3.58 5.36-70.37 121.87-70.37 121.87l42.45.83c9.34 0 15.86-4 19.63-10.55l44.09-76.36s-16.93-30-20.66-35.79-11.37-5.64-15.14 0z" fill="url(#a)"/><path d="m286.78 287.22c9.34 0 15.86-4 19.63-10.55l1.17-2c-2.91 4.85-7.67 10.48-14.2.58-4.76-7.25-43.38-75.19-43.38-75.19l-50.32 87.16z" fill="#231f20"/><path d="m185.3 235.61c3.59-5.38 70.42-122 70.42-122l-42.5-.74c-9.34 0-15.86 4-19.63 10.55l-44.09 76.4s16.93 30 20.66 35.79 11.37 5.64 15.14 0z" fill="url(#b)"/><path d="m213.22 112.91c-9.34 0-15.86 4-19.63 10.55l-1.17 2c2.91-4.85 7.67-10.48 14.2-.58 4.76 7.23 43.39 75.15 43.39 75.15l50.32-87.16z" fill="#231f20"/></svg>