<svg viewBox="0 0 500 500" xmlns="http://www.w3.org/2000/svg" xmlns:xlink="http://www.w3.org/1999/xlink"><linearGradient id="hyphen-logo-horizontal-white-a" gradientUnits="userSpaceOnUse" x1="110.68" x2="235.2" y1="264.13" y2="264.13"><stop offset="0" stop-color="#fff" stop-opacity="0"/><stop offset=".09" stop-color="#fff" stop-opacity=".2"/><stop offset=".19" stop-color="#fff" stop-opacity=".41"/><stop offset=".3" stop-color="#fff" stop-opacity=".59"/><stop offset=".4" stop-color="#fff" stop-opacity=".74"/><stop offset=".5" stop-color="#fff" stop-opacity=".85"/><stop offset=".6" stop-color="#fff" stop-opacity=".93"/><stop offset=".7" stop-color="#fff" stop-opacity=".98"/><stop offset=".8" stop-color="#fff"/></linearGradient><linearGradient id="hyphen-logo-horizontal-white-b" gradientTransform="matrix(-1 0 -0 -1 -1399.75 -6766.76)" x1="-1559.34" x2="-1422" xlink:href="#a" y1="-6966.41" y2="-7045.71"/><g fill="#fff"><path d="m209.18 226.35h6.53v19.51h23.6v-19.51h6.59v46.65h-6.6v-21.34h-23.6v21.34h-6.53z"/><path d="m268.23 266.29h.13l8.64-24.52h6.59l-15.16 38.63a25.46 25.46 0 0 1 -1.71 3.53 10.78 10.78 0 0 1 -2.18 2.64 9 9 0 0 1 -2.93 1.68 12 12 0 0 1 -4 .59q-1 0-2-.1a14.18 14.18 0 0 1 -2.08-.36l.59-5.47a9.77 9.77 0 0 0 3.1.53 4.58 4.58 0 0 0 3.62-1.35 13.24 13.24 0 0 0 2.18-3.86l2-5.21-13.38-31.24h6.92z"/><path d="m295.31 288.83h-6.2v-47.06h6.06v4.88h.2a11.54 11.54 0 0 1 4.44-4.12 13.85 13.85 0 0 1 6.81-1.62 15.66 15.66 0 0 1 6.35 1.25 14.61 14.61 0 0 1 4.93 3.49 15.73 15.73 0 0 1 3.19 5.24 18.24 18.24 0 0 1 1.12 6.43 18.5 18.5 0 0 1 -1.12 6.46 15.92 15.92 0 0 1 -3.16 5.27 14.56 14.56 0 0 1 -4.93 3.53 15.85 15.85 0 0 1 -6.51 1.29 14.17 14.17 0 0 1 -6.31-1.45 11.41 11.41 0 0 1 -4.67-4.09h-.2zm20.57-31.51a13.68 13.68 0 0 0 -.66-4.22 10.77 10.77 0 0 0 -2-3.62 9.46 9.46 0 0 0 -3.22-2.48 10.42 10.42 0 0 0 -4.52-.92 9.94 9.94 0 0 0 -4.32.92 10.14 10.14 0 0 0 -3.33 2.5 11.56 11.56 0 0 0 -2.14 3.62 12.49 12.49 0 0 0 0 8.57 11.15 11.15 0 0 0 2.14 3.59 10.36 10.36 0 0 0 3.33 2.47 9.92 9.92 0 0 0 4.32.92 10.1 10.1 0 0 0 4.52-1 9.82 9.82 0 0 0 3.26-2.54 10.78 10.78 0 0 0 2-3.63 13.66 13.66 0 0 0 .62-4.17z"/><path d="m335.38 246.52a9.65 9.65 0 0 1 3.82-4 11.42 11.42 0 0 1 6.06-1.65 12.16 12.16 0 0 1 5.21 1 10.55 10.55 0 0 1 3.62 2.74 11.07 11.07 0 0 1 2.14 4 17.11 17.11 0 0 1 .69 4.94v19.45h-6.2v-17.3a21.34 21.34 0 0 0 -.3-3.63 8.77 8.77 0 0 0 -1.09-3 6 6 0 0 0 -2.14-2.11 6.92 6.92 0 0 0 -3.53-.79 7.58 7.58 0 0 0 -6.06 2.81 11.24 11.24 0 0 0 -2.37 7.5v16.52h-6.23v-49.82h6.2v23.33z"/><path d="m394.75 257.13v1.06a8.58 8.58 0 0 1 -.07 1.05h-24.85a9.23 9.23 0 0 0 .89 3.7 9.76 9.76 0 0 0 2.21 3 10.24 10.24 0 0 0 3.2 2 11.15 11.15 0 0 0 9.33-.66 11.19 11.19 0 0 0 3.62-3.36l4.35 3.49a15.55 15.55 0 0 1 -5.9 4.89 18.91 18.91 0 0 1 -14.14.38 15.24 15.24 0 0 1 -5.21-3.33 15.43 15.43 0 0 1 -3.43-5.17 17.46 17.46 0 0 1 -1.25-6.72 17.92 17.92 0 0 1 1.22-6.69 15.31 15.31 0 0 1 3.4-5.24 15.6 15.6 0 0 1 5.15-3.39 17.69 17.69 0 0 1 12.65-.1 12.87 12.87 0 0 1 4.76 3.23 14.55 14.55 0 0 1 3 5.11 20.25 20.25 0 0 1 1.07 6.75zm-6.33-2.5a11.84 11.84 0 0 0 -.63-3.46 7.94 7.94 0 0 0 -1.65-2.8 7.75 7.75 0 0 0 -2.7-1.88 9.58 9.58 0 0 0 -3.79-.69 10 10 0 0 0 -3.72.69 9.68 9.68 0 0 0 -3 1.88 9.88 9.88 0 0 0 -2.11 2.8 8.93 8.93 0 0 0 -1 3.46z"/><path d="m406.9 241.77q.13 1.19.2 2.67t.07 2.47h.2a9.1 9.1 0 0 1 1.61-2.34 11.73 11.73 0 0 1 2.34-1.91 11.57 11.57 0 0 1 2.9-1.28 11.71 11.71 0 0 1 3.3-.46 12.16 12.16 0 0 1 5.21 1 10.54 10.54 0 0 1 3.62 2.74 11.05 11.05 0 0 1 2.14 4 17.11 17.11 0 0 1 .69 4.94v19.4h-6.18v-17.32a21.23 21.23 0 0 0 -.3-3.62 8.75 8.75 0 0 0 -1.09-3 5.9 5.9 0 0 0 -2.18-2.11 7.12 7.12 0 0 0 -3.56-.79 7.5 7.5 0 0 0 -6 2.8 11.29 11.29 0 0 0 -2.34 7.48v16.56h-6.2v-24.5q0-1.25-.07-3.23t-.2-3.49z"/></g><path d="m169.45 228.78c-2.14 3.2-42 72.76-42 72.76l25.34.5c5.58 0 9.47-2.4 11.72-6.3l26.32-45.59s-10.11-17.92-12.33-21.36a5.27 5.27 0 0 0 -9.05-.01z" fill="url(#a)"/><path d="m152.78 302c5.58 0 9.47-2.4 11.72-6.3l.7-1.21c-1.74 2.9-4.58 6.25-8.48.34-2.84-4.32-25.9-44.86-25.9-44.86l-30 52z" fill="#fff"/><path d="m92.19 271.22c2.14-3.21 42-72.81 42-72.81l-25.33-.41c-5.58 0-9.47 2.4-11.72 6.3l-26.32 45.56s10.11 17.92 12.33 21.36a5.27 5.27 0 0 0 9.04 0z" fill="url(#b)"/><path d="m108.86 198c-5.58 0-9.47 2.4-11.72 6.3l-.7 1.21c1.74-2.9 4.58-6.25 8.48-.34 2.84 4.32 25.9 44.86 25.9 44.86l30-52z" fill="#fff"/></svg>