<svg viewBox="0 0 1860 680" xmlns="http://www.w3.org/2000/svg" xmlns:xlink="http://www.w3.org/1999/xlink"><linearGradient id="a" gradientUnits="userSpaceOnUse" x1="1788.51" x2="1379.93" y1="545.02" y2="396.31"><stop offset="0" stop-color="#ffd200"/><stop offset="1" stop-color="#ff3278"/></linearGradient><g fill="#fff"><path d="m30 30.93h122.48v617.32h-122.48z"/><path d="m242.3 251.4h122.48v396.85h-122.48z"/><path d="m303.54 55.42c-19.6 0-36.34 6.94-50.22 20.82s-20.82 30.62-20.82 50.22 6.94 36.33 20.82 50.22c13.88 13.88 30.62 20.82 50.22 20.82s36.34-6.94 50.22-20.82 20.82-30.62 20.82-50.22-6.94-36.34-20.82-50.22-30.62-20.82-50.22-20.82z"/><path d="m807.76 295.49c-10.62-16.87-25.46-30.07-44.5-39.61-19.06-9.52-44.09-14.29-75.12-14.29-14.7 0-28.31 1.92-40.83 5.72-12.53 3.81-23.68 8.71-33.48 14.7s-18.25 12.79-25.31 20.41c-7.08 7.63-12.53 15.25-16.33 22.86h-1.63v-53.9h-117.58v396.85h122.48v-197.61c0-13.07.82-25.58 2.45-37.56 1.63-11.97 5.03-22.72 10.21-32.25 5.17-9.52 12.66-17.15 22.45-22.87 9.8-5.71 22.58-8.57 38.38-8.57s27.89 3.26 36.34 9.8c8.43 6.53 14.7 14.98 18.78 25.31 4.08 10.35 6.53 21.64 7.35 33.88.82 12.25 1.22 24.09 1.22 35.52v194.34h122.48v-218.84c0-26.67-1.91-51.44-5.72-74.3s-11.02-42.73-21.64-59.61z"/><path d="m1209.91 368.99c44.23-.95 166.91 0 166.91 0l37.78-121.13h-173.38c-88.24 0-163.66 49.05-197.08 119.21v-336.14h-122.48v617.32h122.48v-111.18c29.73 65.25 94.7 109.81 189.11 111.71 32.67.66 56.27 0 56.27 0l37.79-121.13s-65.52 2.25-117.41 0c-53.46-2.32-86.66-35.59-86.66-79.33s38.96-78.31 86.66-79.33z"/></g><path d="m1629.54 247.87h-123.74l-37.78 121.13h161.52c43.74 0 79.33 35.59 79.33 79.33s-35.59 79.33-79.33 79.33h-211.02l-37.79 121.13h248.81c110.53 0 200.46-89.93 200.46-200.46s-89.92-200.46-200.46-200.46z" fill="url(#a)"/></svg>