<svg viewBox="0 0 1860 540" xmlns="http://www.w3.org/2000/svg"><g fill="#fff"><path d="m773.04 249.85h-52.87v64.89c0 5.34.26 10.21.8 14.62.53 4.4 1.73 8.21 3.6 11.42 1.87 3.2 4.74 5.68 8.61 7.41 3.87 1.74 9.01 2.6 15.42 2.6 3.2 0 7.41-.33 12.62-1 5.21-.66 9.14-2.2 11.81-4.61v50.07c-6.68 2.4-13.62 4.01-20.83 4.81s-14.29 1.2-21.23 1.2c-10.15 0-19.49-1.07-28.04-3.2-8.55-2.14-16.02-5.54-22.43-10.21s-11.41-10.74-15.02-18.22c-3.6-7.47-5.41-16.55-5.41-27.24v-92.52h-38.45v-48.06h38.45v-57.68h60.08v57.68h52.87v48.06z"/><path d="m792.26 299.11c0-15.48 2.8-29.5 8.41-42.06 5.61-12.55 13.28-23.29 23.03-32.24 9.74-8.94 21.23-15.82 34.45-20.63s27.3-7.21 42.25-7.21 29.04 2.4 42.26 7.21 24.69 11.68 34.44 20.63c9.74 8.95 17.42 19.7 23.03 32.24 5.61 12.56 8.41 26.57 8.41 42.06s-2.8 29.51-8.41 42.05c-5.61 12.56-13.29 23.3-23.03 32.24-9.75 8.95-21.23 15.82-34.44 20.63-13.22 4.81-27.3 7.21-42.26 7.21s-29.04-2.4-42.25-7.21c-13.22-4.81-24.7-11.68-34.45-20.63-9.75-8.94-17.42-19.69-23.03-32.24s-8.41-26.56-8.41-42.05zm60.08 0c0 14.69 4.21 26.57 12.62 35.65s20.23 13.62 35.45 13.62 27.04-4.54 35.45-13.62c8.41-9.07 12.62-20.96 12.62-35.65s-4.21-26.56-12.62-35.65c-8.41-9.07-20.23-13.62-35.45-13.62s-27.03 4.54-35.45 13.62c-8.41 9.08-12.62 20.97-12.62 35.65z"/><path d="m1244.05 380.01c0 36.85-9.28 64.82-27.84 83.91s-46.8 28.64-84.71 28.64c-17.36 0-34.44-1.94-51.27-5.81-16.82-3.87-32.31-11.42-46.46-22.63l33.24-49.66c9.34 7.74 19.16 13.88 29.44 18.42s21.56 6.81 33.84 6.81c18.42 0 31.97-4.47 40.65-13.42 8.67-8.95 13.02-20.36 13.02-34.24v-18.83h-.8c-6.95 9.35-15.56 15.96-25.83 19.83-10.28 3.87-19.96 5.81-29.04 5.81-14.42 0-27.51-2.46-39.25-7.41-11.75-4.94-21.83-11.88-30.24-20.83-8.41-8.94-14.89-19.56-19.43-31.84s-6.81-25.76-6.81-40.45c0-12.82 2.06-25.37 6.21-37.65 4.14-12.28 10.01-23.09 17.62-32.44 7.61-9.34 16.88-16.88 27.84-22.63 10.95-5.74 23.36-8.61 37.25-8.61 8.54 0 16.35.94 23.43 2.8 7.07 1.87 13.42 4.27 19.03 7.21s10.41 6.21 14.42 9.81 7.21 7.14 9.61 10.61h.8v-25.63h55.27v178.23zm-151.4-82.1c0 6.41 1.2 12.48 3.6 18.22 2.4 5.75 5.81 10.81 10.21 15.22s9.47 7.95 15.22 10.62c5.74 2.67 12.08 4 19.02 4s12.95-1.33 18.82-4 11.01-6.21 15.42-10.62c4.41-4.4 7.81-9.47 10.21-15.22 2.4-5.74 3.6-11.81 3.6-18.22s-1.2-12.48-3.6-18.22-5.81-10.81-10.21-15.22c-4.41-4.4-9.55-7.94-15.42-10.61-5.88-2.67-12.15-4.01-18.82-4.01s-13.29 1.34-19.02 4.01c-5.75 2.67-10.82 6.21-15.22 10.61-4.41 4.41-7.81 9.48-10.21 15.22-2.4 5.75-3.6 11.81-3.6 18.22z"/><path d="m1492.37 380.01c0 36.85-9.28 64.82-27.84 83.91s-46.8 28.64-84.71 28.64c-17.36 0-34.44-1.94-51.27-5.81-16.82-3.87-32.31-11.42-46.46-22.63l33.24-49.66c9.34 7.74 19.16 13.88 29.44 18.42s21.56 6.81 33.84 6.81c18.42 0 31.97-4.47 40.65-13.42 8.67-8.95 13.02-20.36 13.02-34.24v-18.83h-.8c-6.95 9.35-15.56 15.96-25.83 19.83-10.28 3.87-19.96 5.81-29.04 5.81-14.42 0-27.51-2.46-39.25-7.41-11.75-4.94-21.83-11.88-30.24-20.83-8.41-8.94-14.89-19.56-19.43-31.84s-6.81-25.76-6.81-40.45c0-12.82 2.06-25.37 6.21-37.65 4.14-12.28 10.01-23.09 17.62-32.44 7.61-9.34 16.88-16.88 27.84-22.63 10.95-5.74 23.36-8.61 37.25-8.61 8.54 0 16.35.94 23.43 2.8 7.07 1.87 13.42 4.27 19.03 7.21s10.41 6.21 14.42 9.81 7.21 7.14 9.61 10.61h.8v-25.63h55.27v178.23zm-151.4-82.1c0 6.41 1.2 12.48 3.6 18.22 2.4 5.75 5.81 10.81 10.21 15.22s9.47 7.95 15.22 10.62c5.74 2.67 12.08 4 19.02 4s12.95-1.33 18.82-4 11.01-6.21 15.42-10.62c4.41-4.4 7.81-9.47 10.21-15.22 2.4-5.74 3.6-11.81 3.6-18.22s-1.2-12.48-3.6-18.22-5.81-10.81-10.21-15.22c-4.41-4.4-9.55-7.94-15.42-10.61-5.88-2.67-12.15-4.01-18.82-4.01s-13.29 1.34-19.02 4.01c-5.75 2.67-10.82 6.21-15.22 10.61-4.41 4.41-7.81 9.48-10.21 15.22-2.4 5.75-3.6 11.81-3.6 18.22z"/><path d="m1537.22 93.64h60.08v302.79h-60.08z"/><path d="m1820.79 362.79c-9.61 12.28-21.77 21.76-36.45 28.44-14.69 6.67-29.91 10.01-45.66 10.01s-29.04-2.4-42.25-7.21c-13.22-4.81-24.7-11.68-34.45-20.63-9.75-8.94-17.42-19.69-23.03-32.24s-8.41-26.56-8.41-42.05 2.8-29.5 8.41-42.06c5.61-12.55 13.28-23.29 23.03-32.24 9.74-8.94 21.23-15.82 34.45-20.63s27.3-7.21 42.25-7.21c13.88 0 26.5 2.4 37.85 7.21s20.96 11.68 28.84 20.63c7.87 8.95 13.95 19.7 18.22 32.24 4.27 12.56 6.41 26.57 6.41 42.06v18.82h-139.38c2.4 11.49 7.61 20.63 15.62 27.44s17.89 10.21 29.64 10.21c9.87 0 18.22-2.2 25.03-6.61 6.81-4.4 12.75-10.08 17.82-17.02l42.05 30.84zm-50.87-85.71c.26-10.14-3.07-18.82-10.01-26.03-6.95-7.21-15.89-10.81-26.83-10.81-6.68 0-12.55 1.07-17.62 3.21s-9.41 4.87-13.02 8.21c-3.6 3.34-6.41 7.21-8.41 11.61-2 4.41-3.14 9.01-3.41 13.82h79.3z"/><path d="m377.43 294.07c-38.3 7.44-67.42 31-76.25 69.92-5.74 25.29-9.09 51.16-13.9 76.49-2.04 10.77-4.67 17.66-16.86 17.66s-14.82-6.89-16.86-17.66c-4.8-25.32-8.16-51.2-13.9-76.49-8.84-38.93-37.96-62.49-76.25-69.92-44.58-8.66-89.25-6.21-133.39 5.29.65 45.62 2.6 91.19 5.83 136.7 2.11 34.67 34.17 66 68.52 68.52 110.61 7.84 221.51 7.84 332.12 0 34.67-2.11 66-34.16 68.52-68.52 3.23-45.51 5.18-91.08 5.83-136.7-44.14-11.5-88.81-13.95-133.39-5.29z"/><path d="m163.4 245.93c38.3-7.44 67.42-31 76.25-69.93 5.74-25.29 9.09-51.16 13.9-76.49 2.04-10.77 4.67-17.66 16.86-17.66s14.82 6.89 16.86 17.66c4.81 25.32 8.16 51.2 13.9 76.49 8.83 38.93 37.95 62.48 76.25 69.93 44.59 8.66 89.26 6.21 133.39-5.29-.65-45.62-2.6-91.19-5.83-136.7-2.52-34.35-33.85-66.41-68.52-68.52-110.61-7.84-221.51-7.84-332.12 0-34.35 2.52-66.41 33.85-68.52 68.52-3.23 45.51-5.17 91.08-5.83 136.7 44.14 11.5 88.81 13.95 133.4 5.29z"/></g></svg>