<svg viewBox="0 0 1860 1860" xmlns="http://www.w3.org/2000/svg" xmlns:xlink="http://www.w3.org/1999/xlink"><linearGradient id="a" gradientUnits="userSpaceOnUse" x1="103.62" x2="1570.56" y1="880.9" y2="1727.84"><stop offset="0" stop-color="#00b4ff"/><stop offset="1" stop-color="#dc50ff"/></linearGradient><linearGradient id="b" x1="1833.53" x2="205.52" xlink:href="#a" y1="810.42" y2="217.87"/><path d="m1330.62 1020.08c-143.4 27.85-252.39 116.02-285.47 261.72-21.48 94.64-34.04 191.5-52.03 286.27-7.65 40.29-17.49 66.08-63.13 66.08s-55.48-25.79-63.13-66.08c-17.98-94.77-30.54-191.63-52.03-286.27-33.08-145.7-142.09-233.87-285.46-261.72-166.91-32.42-334.13-23.23-499.38 19.8 2.45 170.76 9.73 341.31 21.82 511.66 7.9 129.75 127.9 247.03 256.51 256.45 414.08 29.34 829.25 29.34 1243.34 0 129.78-7.9 247.09-127.87 256.51-256.45 12.09-170.35 19.37-340.89 21.82-511.66-165.23-43.03-332.46-52.22-499.38-19.8z" fill="url(#a)"/><path d="m529.38 839.92c143.37-27.84 252.38-116.01 285.46-261.72 21.48-94.64 34.04-191.5 52.03-286.27 7.65-40.3 17.5-66.09 63.13-66.09s55.48 25.79 63.13 66.09c17.99 94.77 30.55 191.63 52.03 286.27 33.07 145.69 142.07 233.87 285.47 261.72 166.91 32.42 334.15 23.23 499.38-19.8-2.45-170.76-9.73-341.31-21.82-511.66-9.42-128.58-126.73-248.55-256.51-256.45-414.08-29.34-829.25-29.34-1243.34 0-128.61 9.41-248.62 126.7-256.52 256.45-12.09 170.35-19.37 340.9-21.82 511.66 165.24 43.03 332.47 52.22 499.38 19.8z" fill="url(#b)"/></svg>