<svg viewBox="0 0 1790 1860" xmlns="http://www.w3.org/2000/svg" xmlns:xlink="http://www.w3.org/1999/xlink">
  <linearGradient id="toggle-logo-vertical-rgb-positive-a" gradientUnits="userSpaceOnUse" x1="384.8" x2="1265.83"
    y1="541.19" y2="1049.85">
    <stop offset="0" stop-color="#00b4ff" />
    <stop offset="1" stop-color="#dc50ff" />
  </linearGradient>
  <linearGradient id="toggle-logo-vertical-rgb-positive-b" x1="1423.77" x2="446.01"
    xlink:href="#toggle-logo-vertical-rgb-positive-a" y1="498.75" y2="142.88" />
  <g fill="#323237">
    <path
      d="m247.05 1482.66h-75.66v92.85c0 7.65.38 14.62 1.15 20.92.76 6.3 2.48 11.75 5.16 16.34 2.67 4.58 6.78 8.12 12.32 10.6 5.53 2.49 12.9 3.73 22.07 3.73 4.59 0 10.6-.47 18.06-1.44 7.45-.95 13.08-3.15 16.91-6.59v71.65c-9.55 3.44-19.49 5.73-29.8 6.88-10.32 1.15-20.45 1.72-30.38 1.72-14.53 0-27.9-1.53-40.12-4.58-12.23-3.06-22.93-7.93-32.1-14.62-9.17-6.68-16.33-15.38-21.49-26.08-5.16-10.69-7.74-23.69-7.74-38.98v-132.4h-55.04v-68.78h55.02v-82.54h85.97v82.54h75.66v68.78z" />
    <path
      d="m274.56 1553.16c0-22.16 4.01-42.22 12.04-60.18 8.02-17.95 19-33.33 32.96-46.14 13.95-12.8 30.38-22.64 49.29-29.52s39.07-10.32 60.47-10.32 41.56 3.44 60.47 10.32 35.34 16.72 49.29 29.52c13.95 12.81 24.93 28.19 32.96 46.14 8.02 17.97 12.04 38.03 12.04 60.18s-4.01 42.23-12.04 60.18c-8.02 17.97-19.01 33.34-32.96 46.14-13.95 12.81-30.38 22.64-49.29 29.52s-39.07 10.32-60.47 10.32-41.55-3.44-60.47-10.32-35.35-16.71-49.29-29.52c-13.95-12.8-24.93-28.17-32.96-46.14-8.02-17.95-12.04-38.02-12.04-60.18zm85.97 0c0 21.02 6.02 38.03 18.06 51.01 12.04 12.99 28.94 19.48 50.72 19.48s38.69-6.49 50.73-19.48 18.05-29.99 18.05-51.01-6.02-38.02-18.05-51.01c-12.04-12.99-28.95-19.49-50.73-19.49s-38.69 6.5-50.72 19.49c-12.04 13-18.06 30-18.06 51.01z" />
    <path
      d="m921.08 1668.94c0 52.73-13.28 92.75-39.84 120.08-26.56 27.31-66.97 40.98-121.23 40.98-24.84 0-49.29-2.78-73.36-8.31-24.07-5.54-46.24-16.34-66.49-32.39l47.57-71.07c13.37 11.08 27.41 19.86 42.13 26.37 14.71 6.49 30.85 9.74 48.43 9.74 26.37 0 45.76-6.4 58.18-19.2 12.41-12.81 18.63-29.14 18.63-49v-26.94h-1.15c-9.94 13.38-22.26 22.84-36.97 28.37s-28.57 8.31-41.55 8.31c-20.64 0-39.36-3.53-56.17-10.6-16.82-7.07-31.24-17-43.27-29.81-12.04-12.8-21.31-27.99-27.8-45.57-6.5-17.57-9.74-36.87-9.74-57.89 0-18.34 2.95-36.3 8.88-53.88 5.92-17.57 14.33-33.05 25.22-46.43 10.89-13.37 24.16-24.16 39.83-32.38 15.66-8.21 33.43-12.32 53.3-12.32 12.22 0 23.4 1.34 33.53 4.01 10.12 2.68 19.2 6.12 27.23 10.32 8.02 4.21 14.9 8.88 20.63 14.04s10.32 10.22 13.76 15.19h1.15v-36.68h79.1zm-216.66-117.5c0 9.17 1.72 17.86 5.16 26.08s8.31 15.48 14.62 21.78c6.3 6.31 13.56 11.38 21.78 15.19 8.21 3.82 17.28 5.73 27.22 5.73s18.53-1.91 26.94-5.73c8.4-3.81 15.76-8.88 22.07-15.19 6.31-6.3 11.18-13.56 14.62-21.78 3.44-8.21 5.16-16.91 5.16-26.08s-1.72-17.86-5.16-26.08c-3.44-8.21-8.31-15.48-14.62-21.78s-13.67-11.36-22.07-15.19c-8.41-3.81-17.39-5.73-26.94-5.73s-19.01 1.92-27.22 5.73c-8.22 3.83-15.48 8.88-21.78 15.19-6.31 6.31-11.18 13.57-14.62 21.78-3.44 8.22-5.16 16.91-5.16 26.08z" />
    <path
      d="m1276.44 1668.94c0 52.73-13.28 92.75-39.84 120.08-26.56 27.31-66.97 40.98-121.23 40.98-24.84 0-49.29-2.78-73.36-8.31-24.07-5.54-46.24-16.34-66.49-32.39l47.57-71.07c13.37 11.08 27.41 19.86 42.13 26.37 14.71 6.49 30.85 9.74 48.43 9.74 26.37 0 45.76-6.4 58.18-19.2 12.41-12.81 18.63-29.14 18.63-49v-26.94h-1.15c-9.94 13.38-22.26 22.84-36.97 28.37s-28.57 8.31-41.55 8.31c-20.64 0-39.36-3.53-56.17-10.6-16.82-7.07-31.24-17-43.27-29.81-12.04-12.8-21.31-27.99-27.8-45.57-6.5-17.57-9.74-36.87-9.74-57.89 0-18.34 2.95-36.3 8.88-53.88 5.92-17.57 14.33-33.05 25.22-46.43 10.89-13.37 24.16-24.16 39.83-32.38 15.66-8.21 33.43-12.32 53.3-12.32 12.22 0 23.4 1.34 33.53 4.01 10.12 2.68 19.2 6.12 27.23 10.32 8.02 4.21 14.9 8.88 20.63 14.04s10.32 10.22 13.76 15.19h1.15v-36.68h79.1zm-216.66-117.5c0 9.17 1.72 17.86 5.16 26.08s8.31 15.48 14.62 21.78c6.3 6.31 13.56 11.38 21.78 15.19 8.21 3.82 17.28 5.73 27.22 5.73s18.53-1.91 26.94-5.73c8.4-3.81 15.76-8.88 22.07-15.19 6.31-6.3 11.18-13.56 14.62-21.78 3.44-8.21 5.16-16.91 5.16-26.08s-1.72-17.86-5.16-26.08c-3.44-8.21-8.31-15.48-14.62-21.78s-13.67-11.36-22.07-15.19c-8.41-3.81-17.39-5.73-26.94-5.73s-19.01 1.92-27.22 5.73c-8.22 3.83-15.48 8.88-21.78 15.19-6.31 6.31-11.18 13.57-14.62 21.78-3.44 8.22-5.16 16.91-5.16 26.08z" />
    <path d="m1340.63 1259.13h85.97v433.31h-85.97z" />
    <path
      d="m1746.43 1644.3c-13.76 17.58-31.15 31.15-52.16 40.69-21.02 9.55-42.8 14.33-65.34 14.33s-41.55-3.44-60.47-10.32-35.35-16.71-49.29-29.52c-13.95-12.8-24.93-28.17-32.96-46.14-8.02-17.95-12.04-38.02-12.04-60.18s4.01-42.22 12.04-60.18c8.02-17.95 19-33.33 32.96-46.14 13.95-12.8 30.38-22.64 49.29-29.52s39.07-10.32 60.47-10.32c19.86 0 37.92 3.44 54.16 10.32s29.99 16.72 41.27 29.52c11.27 12.81 19.96 28.19 26.08 46.14 6.11 17.97 9.17 38.03 9.17 60.18v26.94h-199.46c3.44 16.44 10.89 29.52 22.35 39.26s25.59 14.62 42.41 14.62c14.13 0 26.08-3.16 35.82-9.46s18.24-14.42 25.51-24.36l60.18 44.14zm-72.79-122.66c.38-14.52-4.4-26.94-14.33-37.26-9.94-10.32-22.74-15.48-38.4-15.48-9.56 0-17.97 1.53-25.22 4.59-7.26 3.06-13.47 6.97-18.63 11.75s-9.17 10.32-12.04 16.62c-2.87 6.31-4.5 12.9-4.87 19.78z" />
  </g>
  <path
    d="m1121.72 624.74c-86.12 16.73-151.58 69.7-171.44 157.21-12.9 56.85-20.44 115.03-31.25 171.96-4.59 24.2-10.51 39.7-37.91 39.7s-33.32-15.49-37.91-39.7c-10.8-56.93-18.34-115.11-31.25-171.96-19.87-87.52-85.34-140.49-171.44-157.21-100.24-19.47-200.67-13.96-299.91 11.89 1.47 102.58 5.85 205.02 13.11 307.35 4.75 77.94 76.81 148.39 154.05 154.05 248.69 17.63 498.02 17.63 746.71 0 77.94-4.74 148.39-76.81 154.05-154.05 7.26-102.33 11.64-204.77 13.11-307.35-99.23-25.85-199.67-31.37-299.91-11.89z"
    fill="url(#toggle-logo-vertical-rgb-positive-a)" />
  <path
    d="m640.52 516.51c86.1-16.73 151.57-69.69 171.44-157.21 12.9-56.85 20.45-115.03 31.25-171.96 4.59-24.21 10.51-39.7 37.91-39.7s33.32 15.49 37.91 39.7c10.8 56.93 18.35 115.11 31.25 171.96 19.86 87.52 85.32 140.48 171.44 157.21 100.24 19.47 200.68 13.95 299.91-11.89-1.47-102.58-5.85-205.02-13.11-307.35-5.66-77.24-76.11-149.3-154.05-154.05-248.68-17.63-498.02-17.63-746.71 0-77.23 5.66-149.31 76.11-154.05 154.05-7.26 102.33-11.63 204.77-13.11 307.35 99.24 25.85 199.67 31.37 299.91 11.89z"
    fill="url(#toggle-logo-vertical-rgb-positive-b)" />
</svg>
