<svg xmlns="http://www.w3.org/2000/svg" height="16" width="16" viewBox="0 0 16 16"><g fill="currentColor"><circle cx="8" cy="6.5" r="2.5" fill="currentColor" data-color="color-2"></circle><path d="M8,10c-2.131,0-3.937,1.338-4.657,3.216,1.238,1.106,2.866,1.784,4.657,1.784s3.419-.678,4.657-1.784c-.72-1.877-2.527-3.216-4.657-3.216Z" fill="currentColor" data-color="color-2"></path><path d="M8,16C3.589,16,0,12.411,0,8S3.589,0,8,0s8,3.589,8,8-3.589,8-8,8Zm0-14c-3.309,0-6,2.691-6,6s2.691,6,6,6,6-2.691,6-6-2.691-6-6-6Z" fill="currentColor"></path></g></svg>