<svg xmlns="http://www.w3.org/2000/svg" height="16" width="16" viewBox="0 0 16 16"><g fill="currentColor"><path d="M8,14H2V6H14V8h2V4a1,1,0,0,0-1-1H13V1a1,1,0,0,0-2,0V3H5V1A1,1,0,0,0,3,1V3H1A1,1,0,0,0,0,4V15a1,1,0,0,0,1,1H8Z" fill="currentColor"></path><path data-color="color-2" d="M15.5,12H14V10.5a.5.5,0,0,0-.5-.5h-1a.5.5,0,0,0-.5.5V12H10.5a.5.5,0,0,0-.5.5v1a.5.5,0,0,0,.5.5H12v1.5a.5.5,0,0,0,.5.5h1a.5.5,0,0,0,.5-.5V14h1.5a.5.5,0,0,0,.5-.5v-1A.5.5,0,0,0,15.5,12Z" fill="currentColor"></path></g></svg>
