<svg xmlns="http://www.w3.org/2000/svg" height="16" width="16" viewBox="0 0 16 16"><g fill="currentColor"><path fill="currentColor" d="M12.5,12c-1.807,0-3.24-1.049-4.5-2.155C6.74,10.951,5.307,12,3.5,12C1.57,12,0,10.43,0,8.5S1.57,5,3.5,5 C5.307,5,6.74,6.049,8,7.155C9.26,6.049,10.693,5,12.5,5C14.43,5,16,6.57,16,8.5S14.43,12,12.5,12z M9.501,8.5 C10.474,9.338,11.437,10,12.5,10c0.827,0,1.5-0.673,1.5-1.5S13.327,7,12.5,7C11.437,7,10.474,7.662,9.501,8.5z M3.5,7 C2.673,7,2,7.673,2,8.5S2.673,10,3.5,10c1.063,0,2.026-0.662,2.999-1.5C5.526,7.662,4.563,7,3.5,7z"></path></g></svg>