<svg width="16" height="16" viewBox="0 0 16 16" fill="currentColor" xmlns="http://www.w3.org/2000/svg">
<path d="M7.83653 4.35091L6.11391 1.40361C5.96963 1.15678 5.70512 1.00494 5.41922 1.00494H0.411801C0.101124 1.00494 -0.0923496 1.34208 0.0644539 1.61032L4.52261 9.2382C4.67791 9.50394 5.06201 9.50394 5.21731 9.2382L7.83653 4.75686C7.90987 4.6314 7.90987 4.47638 7.83653 4.35091Z" fill="currentColor"/>
<path d="M7.61597 1.61032L9.03973 4.04636C9.22299 4.35988 9.22299 4.7479 9.03973 5.06141L5.79791 10.6081C5.65131 10.859 5.65131 11.1694 5.79791 11.4202L7.65264 14.5937C7.80794 14.8594 8.19205 14.8594 8.34734 14.5937L15.9355 1.61032C16.0923 1.34208 15.8989 1.00494 15.5882 1.00494H7.96332C7.65264 1.00494 7.45917 1.34208 7.61597 1.61032Z" fill="currentColor"/>
</svg>
