<svg width="16" height="16" viewBox="0 0 16 16" fill="none" xmlns="http://www.w3.org/2000/svg">
<g clip-path="url(#clip0_2_14)">
<path d="M11.4462 8.77489C10.2127 9.01446 9.27511 9.77291 8.99055 11.0262C8.80578 11.8404 8.69774 12.6736 8.54298 13.4888C8.47718 13.8354 8.39253 14.0572 7.99993 14.0572C7.60733 14.0572 7.52268 13.8354 7.45688 13.4888C7.30221 12.6736 7.19417 11.8404 7.00931 11.0262C6.72475 9.77291 5.78703 9.01446 4.55374 8.77489C3.11795 8.49601 1.6795 8.57506 0.257996 8.94522C0.279071 10.4141 0.341695 11.8812 0.445695 13.3466C0.513652 14.4627 1.54591 15.4716 2.65223 15.5526C6.21421 15.805 9.78557 15.805 13.3476 15.5526C14.464 15.4847 15.4731 14.4527 15.5542 13.3466C15.6582 11.8812 15.7208 10.4142 15.7419 8.94522C14.3205 8.57506 12.8821 8.49601 11.4462 8.77489Z" fill="currentColor"/>
<path d="M4.55382 7.22513C5.78711 6.98564 6.72483 6.22719 7.00939 4.97377C7.19417 4.15967 7.30221 3.32646 7.45696 2.51124C7.52277 2.16457 7.6075 1.94272 8.00002 1.94272C8.39253 1.94272 8.47726 2.16457 8.54307 2.51124C8.69782 3.32646 8.80587 4.15967 8.99064 4.97377C9.27511 6.22702 10.2127 6.98556 11.4463 7.22513C12.8821 7.50401 14.3207 7.42496 15.742 7.05481C15.721 5.5859 15.6583 4.11881 15.5543 2.65343C15.4733 1.54736 14.4642 0.515365 13.3478 0.447408C9.78582 0.195021 6.21447 0.195021 2.6524 0.447408C1.54608 0.528354 0.513738 1.5373 0.445781 2.65343C0.341781 4.11881 0.279157 5.5859 0.258082 7.05481C1.6795 7.42496 3.11804 7.50401 4.55382 7.22513Z" fill="currentColor"/>
</g>
<defs>
<clipPath id="clip0_2_14">
<rect width="16" height="16" fill="currentColor"/>
</clipPath>
</defs>
</svg>
