<svg width="16" height="16" viewBox="0 0 16 16" fill="none" xmlns="http://www.w3.org/2000/svg">
<g clip-path="url(#clip0_492_95)">
<path d="M12 2C12.3682 2 12.667 2.2988 12.667 2.66699C12.6668 3.03503 12.3681 3.33301 12 3.33301H8.66699V4.41699H12.5C13.8018 4.41699 14.917 5.44202 14.917 6.77832V8.66699H15.334C15.7019 8.66711 16.0008 8.96503 16.001 9.33301C16.001 9.70113 15.7021 9.99981 15.334 10H14.917V12.5557C14.9168 13.8918 13.8017 14.917 12.5 14.917H3.5C2.19834 14.917 1.08319 13.8918 1.08301 12.5557V10H0.666992C0.298802 10 0 9.7012 0 9.33301C0.000170283 8.96496 0.298907 8.66699 0.666992 8.66699H1.08301V6.77832C1.08301 5.44202 2.19823 4.41699 3.5 4.41699H7.33301V2.66699C7.33301 2.2988 7.63181 2 8 2H12ZM3.5 6.25C3.14492 6.25 2.91699 6.51914 2.91699 6.77832V12.5557C2.91719 12.8147 3.14507 13.083 3.5 13.083H12.5C12.8549 13.083 13.0828 12.8147 13.083 12.5557V6.77832C13.083 6.51914 12.8551 6.25 12.5 6.25H3.5ZM5.47949 7.58301C5.70953 7.29567 6.12955 7.24954 6.41699 7.47949C6.70429 7.70954 6.75143 8.12956 6.52148 8.41699L5.52148 9.66699L6.52148 10.917C6.7511 11.2045 6.70436 11.6246 6.41699 11.8545C6.12951 12.0843 5.70947 12.0374 5.47949 11.75L4.14648 10.083C3.9517 9.83953 3.9517 9.49348 4.14648 9.25L5.47949 7.58301ZM9.58301 7.47949C9.87045 7.24954 10.2905 7.29567 10.5205 7.58301L11.8535 9.25C12.0483 9.49348 12.0483 9.83953 11.8535 10.083L10.5205 11.75C10.2905 12.0374 9.87049 12.0843 9.58301 11.8545C9.29564 11.6246 9.2489 11.2045 9.47852 10.917L10.4785 9.66699L9.47852 8.41699C9.24857 8.12956 9.29571 7.70954 9.58301 7.47949Z" fill="currentColor"/>
</g>
<defs>
<clipPath id="clip0_492_95">
<rect width="16" height="16" fill="none"/>
</clipPath>
</defs>
</svg>
