<svg width="16" height="16" viewBox="0 0 16 16" fill="currentColor" xmlns="http://www.w3.org/2000/svg">
<g clip-path="url(#clip0_385_105)">
<path d="M15.9121 8.00032C15.9121 3.64485 12.4075 0.101562 8.10011 0.101562H3.21264L0.0878906 4.55347H8.10011C11.5265 4.55347 14.3142 7.37214 14.3142 10.8368C14.3142 11.7269 14.1332 12.5967 13.7861 13.3945C15.1464 11.9321 15.9122 10.0099 15.9122 8.00032H15.9121ZM8.10011 5.77427H3.21264L0.0878906 10.2264H8.10011C9.97976 10.2264 11.509 11.7725 11.509 13.6731C11.509 14.025 11.4581 14.3672 11.3573 14.6956C12.4612 13.7443 13.1068 12.3371 13.1068 10.8368C13.1068 8.04538 10.8608 5.77427 8.10011 5.77427ZM8.10011 11.4472H3.21264L0.0878906 15.8991H8.10011C9.31391 15.8991 10.3016 14.9005 10.3016 13.673C10.3016 12.4456 9.31391 11.4472 8.10011 11.4472Z" fill="currentColor"/>
</g>
<defs>
<clipPath id="clip0_385_105">
<rect width="16" height="16" fill="white"/>
</clipPath>
</defs>
</svg>
