<svg width="16" height="16" viewBox="0 0 16 16" fill="currentColor" xmlns="http://www.w3.org/2000/svg">
<path fill-rule="evenodd" clip-rule="evenodd" d="M1 6.26087C1 2.34157 4.55911 0 8 0C11.4409 0 15 2.34157 15 6.26087C15 9.94017 8.81511 15.5569 8.55222 15.7948C8.406 15.9263 8.20767 16 8 16C7.79233 16 7.594 15.9263 7.44778 15.7948C7.18489 15.5569 1 9.94017 1 6.26087ZM9 4C9 4.55228 8.55228 5 8 5C7.44772 5 7 4.55228 7 4C7 3.44772 7.44772 3 8 3C8.55228 3 9 3.44772 9 4ZM7 7C7 6.44772 7.44772 6 8 6C8.55228 6 9 6.44772 9 7V10C9 10.5523 8.55228 11 8 11C7.44772 11 7 10.5523 7 10V7Z" />
</svg>
