<svg xmlns="http://www.w3.org/2000/svg" height="16" width="16" viewBox="0 0 16 16"><g fill="currentColor"><path fill="currentColor" d="M6,7H1C0.4,7,0,6.6,0,6V1c0-0.6,0.4-1,1-1h5c0.6,0,1,0.4,1,1v5C7,6.6,6.6,7,6,7z M2,5h3V2H2V5z"></path> <path data-color="color-2" fill="currentColor" d="M6,16H1c-0.6,0-1-0.4-1-1v-5c0-0.6,0.4-1,1-1h5c0.6,0,1,0.4,1,1v5C7,15.6,6.6,16,6,16z M2,14 h3v-3H2V14z"></path> <path data-color="color-2" fill="currentColor" d="M15,7h-5C9.4,7,9,6.6,9,6V1c0-0.6,0.4-1,1-1h5c0.6,0,1,0.4,1,1v5C16,6.6,15.6,7,15,7z M11,5 h3V2h-3V5z"></path> <rect x="3" y="3" fill="currentColor" width="1" height="1"></rect> <rect data-color="color-2" x="3" y="12" fill="currentColor" width="1" height="1"></rect> <rect x="9" y="14" fill="currentColor" width="7" height="2"></rect> <path fill="currentColor" d="M16,13h-2v-2h-3V9h4c0.6,0,1,0.4,1,1V13z"></path> <rect x="12" y="12" fill="currentColor" width="1" height="1"></rect> <rect data-color="color-2" x="12" y="3" fill="currentColor" width="1" height="1"></rect></g></svg>