<svg width="24" height="24" viewBox="0 0 24 24" fill="none" xmlns="http://www.w3.org/2000/svg">
<path fill-rule="evenodd" clip-rule="evenodd" d="M8 19C9.48513 19 10.8637 18.5352 11.9978 17.7434C13.1316 18.5352 14.511 19 16 19C19.86 19 23 15.86 23 12C23 8.13 19.86 5 16 5C14.511 5 13.1316 5.46334 11.9978 6.2539C10.8637 5.46334 9.48513 5 8 5C4.13 5 1 8.13 1 12C1 15.86 4.13 19 8 19ZM8 7C5.23 7 3 9.23 3 12C3 14.76 5.23 17 8 17C8.91068 17 9.76475 16.7561 10.5004 16.3302C9.56051 15.138 9 13.6335 9 12C9 10.363 9.56007 8.85832 10.4993 7.66701C9.7639 7.24254 8.91023 7 8 7ZM16 7C15.0869 7 14.2324 7.24234 13.4972 7.66647C14.438 8.85787 15 10.3627 15 12C15 13.6337 14.4375 15.1384 13.4961 16.3307C14.2315 16.7563 15.0864 17 16 17C18.76 17 21 14.76 21 12C21 9.23 18.76 7 16 7ZM12.0027 9C12.0013 8.99814 11.9999 8.99628 11.9985 8.99443C11.9971 8.99628 11.9957 8.99814 11.9943 9H12.0027ZM11.9995 15H11.9976L11.9985 15.0013L11.9995 15Z" fill="currentColor"/>
</svg>
