<svg xmlns="http://www.w3.org/2000/svg" height="16" width="16" viewBox="0 0 16 16"><g fill="currentColor"><path d="M11.5,5c-1.378,0-2.5-1.122-2.5-2.5s1.122-2.5,2.5-2.5,2.5,1.122,2.5,2.5-1.122,2.5-2.5,2.5Z" fill="currentColor" data-color="color-2"></path><path d="M11.5,6c-.956,0-1.84,.305-2.569,.815,.035,.225,.069,.451,.069,.685,0,.98-.323,1.88-.857,2.62,.377,.256,.722,.553,1.036,.88h6.321c.276,0,.5-.224,.5-.5,0-2.481-2.019-4.5-4.5-4.5Z" fill="currentColor" data-color="color-2"></path><path d="M8.5,16H.5c-.276,0-.5-.224-.5-.5,0-2.481,2.019-4.5,4.5-4.5s4.5,2.019,4.5,4.5c0,.276-.224,.5-.5,.5Z" fill="currentColor"></path><path d="M4.5,10c-1.378,0-2.5-1.122-2.5-2.5s1.122-2.5,2.5-2.5,2.5,1.122,2.5,2.5-1.122,2.5-2.5,2.5Z" fill="currentColor"></path></g></svg>
